<?xml version="1.0" encoding="UTF-8"?>
<!DOCTYPE svg PUBLIC "-//W3C//DTD SVG 1.1//EN" "http://www.w3.org/Graphics/SVG/1.1/DTD/svg11.dtd">
<svg version="1.1" xmlns="http://www.w3.org/2000/svg" xmlns:xlink="http://www.w3.org/1999/xlink" x="0" y="0" width="567.186" height="59.969" viewBox="0, 0, 567.186, 59.969">
  <defs>
    <clipPath id="Clip_1">
      <path d="M103.814,360.031 L140.387,360.031 L140.387,417.463 L103.814,417.463 z M121.148,373.146 Q123.551,373.146 124.312,373.879 Q125.074,374.611 125.074,377.043 L125.074,380.939 Q125.074,383.576 124.415,384.411 Q123.756,385.246 122.057,385.246 Q121.676,385.246 121.148,385.217 L121.148,373.146 z M121.236,365.031 L108.814,365.031 L108.814,412.463 L121.148,412.463 L121.148,393.361 L124.459,393.361 Q128.502,393.361 131.007,392.248 Q133.512,391.135 134.449,389.055 Q135.387,386.975 135.387,382.434 L135.387,378.303 Q135.387,373.85 134.903,371.726 Q134.42,369.602 133.058,368.107 Q131.695,366.613 128.985,365.822 Q126.275,365.031 121.236,365.031 z"/>
    </clipPath>
    <filter id="Shadow_2">
      <feGaussianBlur in="SourceAlpha" stdDeviation="1.5"/>
      <feOffset dx="1" dy="1" result="offsetblur"/>
      <feFlood flood-color="#AAAAAA"/>
      <feComposite in2="offsetblur" operator="in"/>
    </filter>
    <clipPath id="Clip_3">
      <path d="M133.58,367.883 L162.418,367.883 L162.418,417.463 L133.58,417.463 z M157.418,372.883 Q152.525,373.205 149.947,378.684 L150.416,373.586 L138.58,373.586 L138.58,412.463 L150.416,412.463 L150.416,397.111 Q150.416,391.457 150.768,389.89 Q151.119,388.322 152.643,387.443 Q154.166,386.564 157.418,386.564 L157.418,372.883 z"/>
    </clipPath>
    <filter id="Shadow_4">
      <feGaussianBlur in="SourceAlpha" stdDeviation="1.5"/>
      <feOffset dx="1" dy="1" result="offsetblur"/>
      <feFlood flood-color="#AAAAAA"/>
      <feComposite in2="offsetblur" operator="in"/>
    </filter>
    <clipPath id="Clip_5">
      <path d="M154.703,367.883 L191.861,367.883 L191.861,418.166 L154.703,418.166 z M173.355,379.768 Q174.352,379.768 174.674,380.646 Q174.996,381.525 174.996,384.543 L174.996,387.385 L171.539,387.385 L171.539,384.543 Q171.539,381.262 171.832,380.515 Q172.125,379.768 173.355,379.767 z M172.799,372.883 Q168.727,372.883 165.592,374.45 Q162.457,376.018 161.08,378.962 Q159.703,381.906 159.703,387.004 L159.703,398.342 Q159.703,402.678 160.318,404.948 Q160.934,407.219 162.53,409.108 Q164.127,410.998 166.998,412.082 Q169.869,413.166 173.619,413.166 Q177.486,413.166 180.05,412.067 Q182.613,410.969 184.283,408.771 Q185.953,406.574 186.407,404.641 Q186.861,402.707 186.861,399.103 L186.861,396.232 L175.641,396.232 L175.641,401.359 Q175.641,404.26 175.187,405.271 Q174.732,406.281 173.385,406.281 Q172.301,406.281 171.92,405.52 Q171.539,404.758 171.539,402.121 L171.539,393.713 L186.861,393.713 L186.861,388.557 Q186.861,382.902 185.558,379.782 Q184.254,376.662 181.017,374.772 Q177.779,372.883 172.799,372.883 z"/>
    </clipPath>
    <filter id="Shadow_6">
      <feGaussianBlur in="SourceAlpha" stdDeviation="1.5"/>
      <feOffset dx="1" dy="1" result="offsetblur"/>
      <feFlood flood-color="#AAAAAA"/>
      <feComposite in2="offsetblur" operator="in"/>
    </filter>
    <clipPath id="Clip_7">
      <path d="M185.729,367.883 L222.975,367.883 L222.975,423 L185.729,423 z M204.41,379.768 Q205.611,379.768 205.875,380.529 Q206.139,381.291 206.139,384.895 L206.139,401.564 Q206.139,404.67 205.86,405.476 Q205.582,406.281 204.439,406.281 Q203.268,406.281 202.916,405.402 Q202.564,404.523 202.564,401.008 L202.564,384.895 Q202.564,381.525 202.901,380.646 Q203.238,379.768 204.41,379.767 z M210.211,372.883 Q207.955,372.883 206.051,373.908 Q204.146,374.934 202.564,377.014 L202.77,373.586 L190.729,373.586 L190.729,418 L202.564,418 L202.564,409.094 Q204.117,411.115 205.992,412.141 Q207.867,413.166 210.064,413.166 Q212.818,413.166 214.767,411.833 Q216.715,410.5 217.345,408.259 Q217.975,406.018 217.975,400.715 L217.975,384.338 Q217.975,379.709 217.477,377.775 Q216.979,375.842 214.972,374.362 Q212.965,372.883 210.211,372.883 z"/>
    </clipPath>
    <filter id="Shadow_8">
      <feGaussianBlur in="SourceAlpha" stdDeviation="1.5"/>
      <feOffset dx="1" dy="1" result="offsetblur"/>
      <feFlood flood-color="#AAAAAA"/>
      <feComposite in2="offsetblur" operator="in"/>
    </filter>
    <clipPath id="Clip_9">
      <path d="M216.344,367.883 L253.033,367.883 L253.033,418.166 L216.344,418.166 z M236.197,393.977 L236.197,401.975 Q236.197,404.904 235.86,405.593 Q235.523,406.281 234.41,406.281 Q233.238,406.281 232.843,405.402 Q232.447,404.523 232.447,401.506 Q232.447,398.869 232.901,397.463 Q233.355,396.057 236.197,393.977 z M234.703,372.883 Q229.693,372.883 226.559,374.758 Q223.424,376.633 222.384,379.079 Q221.344,381.525 221.344,386.037 L221.344,388.645 L232.447,388.645 L232.447,384.572 Q232.447,381.32 232.74,380.544 Q233.033,379.768 234.234,379.768 Q235.289,379.768 235.743,380.69 Q236.197,381.613 236.197,384.66 Q236.197,387.092 235.787,387.883 Q235.377,388.674 229.547,390.959 Q224.098,393.068 222.721,394.65 Q221.344,396.232 221.344,400.598 L221.344,403.791 Q221.344,409.68 223.937,411.423 Q226.529,413.166 229.635,413.166 Q232.008,413.166 233.722,412.126 Q235.436,411.086 236.52,409.006 L236.52,412.463 L248.033,412.463 L248.033,392.951 Q248.033,383.312 247.418,380.222 Q246.803,377.131 243.756,375.007 Q240.709,372.883 234.703,372.883 z"/>
    </clipPath>
    <filter id="Shadow_10">
      <feGaussianBlur in="SourceAlpha" stdDeviation="1.5"/>
      <feOffset dx="1" dy="1" result="offsetblur"/>
      <feFlood flood-color="#AAAAAA"/>
      <feComposite in2="offsetblur" operator="in"/>
    </filter>
    <clipPath id="Clip_11">
      <path d="M247.105,367.883 L275.943,367.883 L275.943,417.463 L247.105,417.463 z M270.943,372.883 Q266.051,373.205 263.473,378.684 L263.941,373.586 L252.105,373.586 L252.105,412.463 L263.941,412.463 L263.941,397.111 Q263.941,391.457 264.293,389.89 Q264.645,388.322 266.168,387.443 Q267.691,386.564 270.943,386.564 L270.943,372.883 z"/>
    </clipPath>
    <filter id="Shadow_12">
      <feGaussianBlur in="SourceAlpha" stdDeviation="1.5"/>
      <feOffset dx="1" dy="1" result="offsetblur"/>
      <feFlood flood-color="#AAAAAA"/>
      <feComposite in2="offsetblur" operator="in"/>
    </filter>
    <clipPath id="Clip_13">
      <path d="M268.228,367.883 L305.387,367.883 L305.387,418.166 L268.228,418.166 z M286.881,379.768 Q287.877,379.768 288.199,380.646 Q288.521,381.525 288.521,384.543 L288.521,387.385 L285.064,387.385 L285.064,384.543 Q285.064,381.262 285.357,380.515 Q285.65,379.768 286.881,379.767 z M286.324,372.883 Q282.252,372.883 279.117,374.45 Q275.982,376.018 274.605,378.962 Q273.229,381.906 273.228,387.004 L273.229,398.342 Q273.229,402.678 273.844,404.948 Q274.459,407.219 276.056,409.108 Q277.652,410.998 280.523,412.082 Q283.395,413.166 287.145,413.166 Q291.012,413.166 293.575,412.067 Q296.139,410.969 297.809,408.771 Q299.479,406.574 299.933,404.641 Q300.387,402.707 300.387,399.103 L300.387,396.232 L289.166,396.232 L289.166,401.359 Q289.166,404.26 288.712,405.271 Q288.258,406.281 286.91,406.281 Q285.826,406.281 285.445,405.52 Q285.064,404.758 285.064,402.121 L285.064,393.713 L300.387,393.713 L300.387,388.557 Q300.387,382.902 299.083,379.782 Q297.779,376.662 294.542,374.772 Q291.305,372.883 286.324,372.883 z"/>
    </clipPath>
    <filter id="Shadow_14">
      <feGaussianBlur in="SourceAlpha" stdDeviation="1.5"/>
      <feOffset dx="1" dy="1" result="offsetblur"/>
      <feFlood flood-color="#AAAAAA"/>
      <feComposite in2="offsetblur" operator="in"/>
    </filter>
    <clipPath id="Clip_15">
      <path d="M307.838,360.031 L334.918,360.031 L334.918,417.463 L307.838,417.463 z M329.918,365.031 L325.582,365.031 Q321.627,365.031 319.752,365.559 Q317.877,366.086 316.837,367.097 Q315.797,368.107 315.533,369.396 Q315.27,370.686 315.27,374.523 L312.838,374.523 L312.838,380.676 L315.27,380.676 L315.27,412.463 L327.105,412.463 L327.105,380.676 L329.918,380.676 L329.918,374.523 L324.937,374.523 L324.938,373.293 Q324.938,371.711 325.597,371.374 Q326.256,371.037 329.918,371.037 L329.918,365.031 z"/>
    </clipPath>
    <filter id="Shadow_16">
      <feGaussianBlur in="SourceAlpha" stdDeviation="1.5"/>
      <feOffset dx="1" dy="1" result="offsetblur"/>
      <feFlood flood-color="#AAAAAA"/>
      <feComposite in2="offsetblur" operator="in"/>
    </filter>
    <clipPath id="Clip_17">
      <path d="M326.822,367.883 L363.951,367.883 L363.951,418.166 L326.822,418.166 z M345.416,379.768 Q346.471,379.768 346.793,380.544 Q347.115,381.32 347.115,384.309 L347.115,402.238 Q347.115,404.758 346.778,405.52 Q346.441,406.281 345.387,406.281 Q344.361,406.281 344.01,405.446 Q343.658,404.611 343.658,401.857 L343.658,384.309 Q343.658,381.32 344.01,380.544 Q344.361,379.768 345.416,379.767 z M345.006,372.883 Q340.26,372.883 337.213,374.729 Q334.166,376.574 332.994,379.621 Q331.822,382.668 331.822,388.088 L331.822,398.049 Q331.822,403 332.467,405.476 Q333.111,407.951 334.62,409.694 Q336.129,411.438 338.854,412.302 Q341.578,413.166 345.504,413.166 Q349.02,413.166 351.729,412.155 Q354.439,411.145 356.168,409.021 Q357.896,406.896 358.424,404.45 Q358.951,402.004 358.951,396.76 L358.951,387.238 Q358.951,383.107 358.38,381.086 Q357.809,379.064 356.256,377.16 Q354.703,375.256 351.847,374.069 Q348.99,372.883 345.006,372.883 z"/>
    </clipPath>
    <filter id="Shadow_18">
      <feGaussianBlur in="SourceAlpha" stdDeviation="1.5"/>
      <feOffset dx="1" dy="1" result="offsetblur"/>
      <feFlood flood-color="#AAAAAA"/>
      <feComposite in2="offsetblur" operator="in"/>
    </filter>
    <clipPath id="Clip_19">
      <path d="M357.848,367.883 L386.686,367.883 L386.686,417.463 L357.848,417.463 z M381.686,372.883 Q376.793,373.205 374.215,378.684 L374.684,373.586 L362.848,373.586 L362.848,412.463 L374.684,412.463 L374.684,397.111 Q374.684,391.457 375.035,389.89 Q375.387,388.322 376.91,387.443 Q378.434,386.564 381.685,386.564 L381.685,372.883 z"/>
    </clipPath>
    <filter id="Shadow_20">
      <feGaussianBlur in="SourceAlpha" stdDeviation="1.5"/>
      <feOffset dx="1" dy="1" result="offsetblur"/>
      <feFlood flood-color="#AAAAAA"/>
      <feComposite in2="offsetblur" operator="in"/>
    </filter>
    <clipPath id="Clip_21">
      <path d="M387.437,368.586 L424.684,368.586 L424.684,422.912 L387.437,422.912 z M403.189,373.586 L392.437,373.586 L398.912,406.105 Q399.645,409.709 399.645,410.178 Q399.645,411.145 398.854,411.423 Q398.062,411.701 395.309,411.701 L395.309,417.912 L402.486,417.912 Q407.408,417.912 409.649,417.165 Q411.891,416.418 413.15,414.836 Q414.41,413.254 414.952,410.822 Q415.494,408.391 416.285,401.711 L419.684,373.586 L408.932,373.586 L407.057,399.807 L403.189,373.586 z"/>
    </clipPath>
    <filter id="Shadow_22">
      <feGaussianBlur in="SourceAlpha" stdDeviation="1.5"/>
      <feOffset dx="1" dy="1" result="offsetblur"/>
      <feFlood flood-color="#AAAAAA"/>
      <feComposite in2="offsetblur" operator="in"/>
    </filter>
    <clipPath id="Clip_23">
      <path d="M416.441,367.883 L453.57,367.883 L453.57,418.166 L416.441,418.166 z M435.035,379.768 Q436.09,379.768 436.412,380.544 Q436.734,381.32 436.734,384.309 L436.734,402.238 Q436.734,404.758 436.397,405.52 Q436.061,406.281 435.006,406.281 Q433.98,406.281 433.629,405.446 Q433.277,404.611 433.277,401.857 L433.277,384.309 Q433.277,381.32 433.629,380.544 Q433.98,379.768 435.035,379.767 z M434.625,372.883 Q429.879,372.883 426.832,374.729 Q423.785,376.574 422.613,379.621 Q421.441,382.668 421.441,388.088 L421.441,398.049 Q421.441,403 422.086,405.476 Q422.73,407.951 424.239,409.694 Q425.748,411.438 428.473,412.302 Q431.197,413.166 435.123,413.166 Q438.639,413.166 441.349,412.155 Q444.059,411.145 445.787,409.021 Q447.516,406.896 448.043,404.45 Q448.57,402.004 448.57,396.76 L448.57,387.238 Q448.57,383.107 447.999,381.086 Q447.428,379.064 445.875,377.16 Q444.322,375.256 441.466,374.069 Q438.609,372.883 434.625,372.883 z"/>
    </clipPath>
    <filter id="Shadow_24">
      <feGaussianBlur in="SourceAlpha" stdDeviation="1.5"/>
      <feOffset dx="1" dy="1" result="offsetblur"/>
      <feFlood flood-color="#AAAAAA"/>
      <feComposite in2="offsetblur" operator="in"/>
    </filter>
    <clipPath id="Clip_25">
      <path d="M447.291,368.586 L484.566,368.586 L484.566,418.166 L447.291,418.166 z M464.127,373.586 L452.291,373.586 L452.291,399.807 Q452.291,404.816 452.496,406.501 Q452.701,408.186 453.536,409.738 Q454.371,411.291 456.129,412.229 Q457.887,413.166 460.553,413.166 Q462.896,413.166 464.698,412.185 Q466.5,411.203 467.73,409.24 L467.525,412.463 L479.566,412.463 L479.566,373.586 L467.73,373.586 L467.73,399.748 Q467.73,404.523 467.481,405.402 Q467.232,406.281 465.914,406.281 Q464.684,406.281 464.405,405.432 Q464.127,404.582 464.127,400.041 L464.127,373.586 z"/>
    </clipPath>
    <filter id="Shadow_26">
      <feGaussianBlur in="SourceAlpha" stdDeviation="1.5"/>
      <feOffset dx="1" dy="1" result="offsetblur"/>
      <feFlood flood-color="#AAAAAA"/>
      <feComposite in2="offsetblur" operator="in"/>
    </filter>
    <clipPath id="Clip_27">
      <path d="M478.814,367.883 L507.652,367.883 L507.652,417.463 L478.814,417.463 z M502.652,372.883 Q497.76,373.205 495.182,378.684 L495.65,373.586 L483.814,373.586 L483.814,412.463 L495.65,412.463 L495.65,397.111 Q495.65,391.457 496.002,389.89 Q496.354,388.322 497.877,387.443 Q499.4,386.564 502.652,386.564 L502.652,372.883 z"/>
    </clipPath>
    <filter id="Shadow_28">
      <feGaussianBlur in="SourceAlpha" stdDeviation="1.5"/>
      <feOffset dx="1" dy="1" result="offsetblur"/>
      <feFlood flood-color="#AAAAAA"/>
      <feComposite in2="offsetblur" operator="in"/>
    </filter>
    <clipPath id="Clip_29">
      <path d="M511.217,360.031 L542.105,360.031 L542.105,417.463 L511.217,417.463 z M537.105,365.031 L516.217,365.031 L516.217,412.463 L528.551,412.463 L528.551,392.541 L536.168,392.541 L536.168,383.517 L528.551,383.517 L528.551,374.523 L537.105,374.523 L537.105,365.031 z"/>
    </clipPath>
    <filter id="Shadow_30">
      <feGaussianBlur in="SourceAlpha" stdDeviation="1.5"/>
      <feOffset dx="1" dy="1" result="offsetblur"/>
      <feFlood flood-color="#AAAAAA"/>
      <feComposite in2="offsetblur" operator="in"/>
    </filter>
    <clipPath id="Clip_31">
      <path d="M534.566,368.586 L571.842,368.586 L571.842,418.166 L534.566,418.166 z M551.402,373.586 L539.566,373.586 L539.566,399.807 Q539.566,404.816 539.771,406.501 Q539.977,408.186 540.812,409.738 Q541.646,411.291 543.404,412.229 Q545.162,413.166 547.828,413.166 Q550.172,413.166 551.974,412.185 Q553.775,411.203 555.006,409.24 L554.801,412.463 L566.842,412.463 L566.842,373.586 L555.006,373.586 L555.006,399.748 Q555.006,404.523 554.757,405.402 Q554.508,406.281 553.189,406.281 Q551.959,406.281 551.681,405.432 Q551.402,404.582 551.402,400.041 L551.402,373.586 z"/>
    </clipPath>
    <filter id="Shadow_32">
      <feGaussianBlur in="SourceAlpha" stdDeviation="1.5"/>
      <feOffset dx="1" dy="1" result="offsetblur"/>
      <feFlood flood-color="#AAAAAA"/>
      <feComposite in2="offsetblur" operator="in"/>
    </filter>
    <clipPath id="Clip_33">
      <path d="M564.156,363.4 L592.262,363.4 L592.262,417.463 L564.156,417.463 z M583.57,368.4 L571.705,368.4 L571.705,374.523 L569.156,374.523 L569.156,380.676 L571.705,380.676 L571.705,400.422 Q571.705,406.223 572.027,407.79 Q572.35,409.357 573.668,410.573 Q574.986,411.789 576.715,412.126 Q578.443,412.463 582.486,412.463 L587.262,412.463 L587.262,406.193 Q584.361,406.193 583.966,405.754 Q583.57,405.314 583.57,401.477 L583.57,380.676 L586.764,380.676 L586.764,374.523 L583.57,374.523 L583.57,368.4 z"/>
    </clipPath>
    <filter id="Shadow_34">
      <feGaussianBlur in="SourceAlpha" stdDeviation="1.5"/>
      <feOffset dx="1" dy="1" result="offsetblur"/>
      <feFlood flood-color="#AAAAAA"/>
      <feComposite in2="offsetblur" operator="in"/>
    </filter>
    <clipPath id="Clip_35">
      <path d="M584.195,368.586 L621.471,368.586 L621.471,418.166 L584.195,418.166 z M601.031,373.586 L589.195,373.586 L589.195,399.807 Q589.195,404.816 589.4,406.501 Q589.605,408.186 590.44,409.738 Q591.275,411.291 593.033,412.229 Q594.791,413.166 597.457,413.166 Q599.801,413.166 601.603,412.185 Q603.404,411.203 604.635,409.24 L604.43,412.463 L616.471,412.463 L616.471,373.586 L604.635,373.586 L604.635,399.748 Q604.635,404.523 604.386,405.402 Q604.137,406.281 602.818,406.281 Q601.588,406.281 601.31,405.432 Q601.031,404.582 601.031,400.041 L601.031,373.586 z"/>
    </clipPath>
    <filter id="Shadow_36">
      <feGaussianBlur in="SourceAlpha" stdDeviation="1.5"/>
      <feOffset dx="1" dy="1" result="offsetblur"/>
      <feFlood flood-color="#AAAAAA"/>
      <feComposite in2="offsetblur" operator="in"/>
    </filter>
    <clipPath id="Clip_37">
      <path d="M615.719,367.883 L644.557,367.883 L644.557,417.463 L615.719,417.463 z M639.557,372.883 Q634.664,373.205 632.086,378.684 L632.555,373.586 L620.719,373.586 L620.719,412.463 L632.555,412.463 L632.555,397.111 Q632.555,391.457 632.906,389.89 Q633.258,388.322 634.781,387.443 Q636.305,386.564 639.557,386.564 L639.557,372.883 z"/>
    </clipPath>
    <filter id="Shadow_38">
      <feGaussianBlur in="SourceAlpha" stdDeviation="1.5"/>
      <feOffset dx="1" dy="1" result="offsetblur"/>
      <feFlood flood-color="#AAAAAA"/>
      <feComposite in2="offsetblur" operator="in"/>
    </filter>
    <clipPath id="Clip_39">
      <path d="M636.842,367.883 L674,367.883 L674,418.166 L636.842,418.166 z M655.494,379.768 Q656.49,379.768 656.812,380.646 Q657.135,381.525 657.135,384.543 L657.135,387.385 L653.678,387.385 L653.678,384.543 Q653.678,381.262 653.971,380.515 Q654.264,379.768 655.494,379.767 z M654.938,372.883 Q650.865,372.883 647.73,374.45 Q644.596,376.018 643.219,378.962 Q641.842,381.906 641.842,387.004 L641.842,398.342 Q641.842,402.678 642.457,404.948 Q643.072,407.219 644.669,409.108 Q646.266,410.998 649.137,412.082 Q652.008,413.166 655.758,413.166 Q659.625,413.166 662.188,412.067 Q664.752,410.969 666.422,408.771 Q668.092,406.574 668.546,404.641 Q669,402.707 669,399.103 L669,396.232 L657.779,396.232 L657.779,401.359 Q657.779,404.26 657.325,405.271 Q656.871,406.281 655.523,406.281 Q654.439,406.281 654.059,405.52 Q653.678,404.758 653.678,402.121 L653.678,393.713 L669,393.713 L669,388.557 Q669,382.902 667.696,379.782 Q666.393,376.662 663.155,374.772 Q659.918,372.883 654.938,372.883 z"/>
    </clipPath>
    <filter id="Shadow_40">
      <feGaussianBlur in="SourceAlpha" stdDeviation="1.5"/>
      <feOffset dx="1" dy="1" result="offsetblur"/>
      <feFlood flood-color="#AAAAAA"/>
      <feComposite in2="offsetblur" operator="in"/>
    </filter>
  </defs>
  <g id="Layer_1" transform="translate(-105.814, -362.031)">
    <g>
      <g>
        <path d="M121.236,365.031 Q126.275,365.031 128.985,365.822 Q131.695,366.613 133.058,368.107 Q134.42,369.602 134.903,371.726 Q135.387,373.85 135.387,378.303 L135.387,382.434 Q135.387,386.975 134.449,389.055 Q133.512,391.135 131.007,392.248 Q128.502,393.361 124.459,393.361 L121.148,393.361 L121.148,412.463 L108.814,412.463 L108.814,365.031 L121.236,365.031 z M121.148,373.146 L121.148,385.217 Q121.676,385.246 122.057,385.246 Q123.756,385.246 124.415,384.411 Q125.074,383.576 125.074,380.939 L125.074,377.043 Q125.074,374.611 124.312,373.879 Q123.551,373.146 121.148,373.146 z" clip-path="url(#Clip_1)" filter="url(#Shadow_2)" fill="rgba(0,0,0,1)"/>
        <path d="M108.814,365.031 L121.236,365.031 Q126.275,365.031 128.985,365.822 Q131.695,366.613 133.058,368.107 Q134.42,369.602 134.903,371.726 Q135.387,373.85 135.387,378.303 L135.387,382.434 Q135.387,386.975 134.449,389.055 Q133.512,391.135 131.007,392.248 Q128.502,393.361 124.459,393.361 L121.148,393.361 L121.148,412.463 L108.814,412.463 z M121.148,373.146 L121.148,385.217 Q121.676,385.246 122.057,385.246 Q123.756,385.246 124.415,384.411 Q125.074,383.576 125.074,380.939 L125.074,377.043 Q125.074,374.611 124.312,373.879 Q123.551,373.146 121.148,373.146 z" fill="#0674D8"/>
      </g>
      <g>
        <path d="M157.418,372.883 L157.418,386.564 Q154.166,386.564 152.643,387.443 Q151.119,388.322 150.768,389.89 Q150.416,391.457 150.416,397.111 L150.416,412.463 L138.58,412.463 L138.58,373.586 L150.416,373.586 L149.947,378.684 Q152.525,373.205 157.418,372.883 z" clip-path="url(#Clip_3)" filter="url(#Shadow_4)" fill="rgba(0,0,0,1)"/>
        <path d="M150.416,373.586 L149.947,378.684 Q152.525,373.205 157.418,372.883 L157.418,386.564 Q154.166,386.564 152.643,387.443 Q151.119,388.322 150.768,389.89 Q150.416,391.457 150.416,397.111 L150.416,412.463 L138.58,412.463 L138.58,373.586 z" fill="#0674D8"/>
      </g>
      <g>
        <path d="M172.799,372.883 Q177.779,372.883 181.017,374.772 Q184.254,376.662 185.558,379.782 Q186.861,382.902 186.861,388.557 L186.861,393.713 L171.539,393.713 L171.539,402.121 Q171.539,404.758 171.92,405.52 Q172.301,406.281 173.385,406.281 Q174.732,406.281 175.187,405.271 Q175.641,404.26 175.641,401.359 L175.641,396.232 L186.861,396.232 L186.861,399.103 Q186.861,402.707 186.407,404.641 Q185.953,406.574 184.283,408.771 Q182.613,410.969 180.05,412.067 Q177.486,413.166 173.619,413.166 Q169.869,413.166 166.998,412.082 Q164.127,410.998 162.53,409.108 Q160.934,407.219 160.318,404.948 Q159.703,402.678 159.703,398.342 L159.703,387.004 Q159.703,381.906 161.08,378.962 Q162.457,376.018 165.592,374.45 Q168.727,372.883 172.799,372.883 z M173.355,379.767 Q172.125,379.768 171.832,380.515 Q171.539,381.262 171.539,384.543 L171.539,387.385 L174.996,387.385 L174.996,384.543 Q174.996,381.525 174.674,380.646 Q174.352,379.768 173.355,379.768 z" clip-path="url(#Clip_5)" filter="url(#Shadow_6)" fill="rgba(0,0,0,1)"/>
        <path d="M186.861,393.713 L171.539,393.713 L171.539,402.121 Q171.539,404.758 171.92,405.52 Q172.301,406.281 173.385,406.281 Q174.732,406.281 175.187,405.271 Q175.641,404.26 175.641,401.359 L175.641,396.232 L186.861,396.232 L186.861,399.104 Q186.861,402.707 186.407,404.641 Q185.953,406.574 184.283,408.771 Q182.613,410.969 180.05,412.067 Q177.486,413.166 173.619,413.166 Q169.869,413.166 166.998,412.082 Q164.127,410.998 162.53,409.108 Q160.934,407.219 160.318,404.948 Q159.703,402.678 159.703,398.342 L159.703,387.004 Q159.703,381.906 161.08,378.962 Q162.457,376.018 165.592,374.45 Q168.727,372.883 172.799,372.883 Q177.779,372.883 181.017,374.772 Q184.254,376.662 185.558,379.782 Q186.861,382.902 186.861,388.557 z M174.996,387.385 L174.996,384.543 Q174.996,381.525 174.674,380.646 Q174.352,379.768 173.355,379.768 Q172.125,379.768 171.832,380.515 Q171.539,381.262 171.539,384.543 L171.539,387.385 z" fill="#0674D8"/>
      </g>
      <g>
        <path d="M210.211,372.883 Q212.965,372.883 214.972,374.362 Q216.979,375.842 217.477,377.775 Q217.975,379.709 217.975,384.338 L217.975,400.715 Q217.975,406.018 217.345,408.259 Q216.715,410.5 214.767,411.833 Q212.818,413.166 210.064,413.166 Q207.867,413.166 205.992,412.141 Q204.117,411.115 202.564,409.094 L202.564,418 L190.729,418 L190.729,373.586 L202.77,373.586 L202.564,377.014 Q204.146,374.934 206.051,373.908 Q207.955,372.883 210.211,372.883 z M204.41,379.767 Q203.238,379.768 202.901,380.646 Q202.564,381.525 202.564,384.895 L202.564,401.008 Q202.564,404.523 202.916,405.402 Q203.268,406.281 204.439,406.281 Q205.582,406.281 205.86,405.476 Q206.139,404.67 206.139,401.564 L206.139,384.895 Q206.139,381.291 205.875,380.529 Q205.611,379.768 204.41,379.768 z" clip-path="url(#Clip_7)" filter="url(#Shadow_8)" fill="rgba(0,0,0,1)"/>
        <path d="M202.77,373.586 L202.564,377.014 Q204.146,374.934 206.051,373.908 Q207.955,372.883 210.211,372.883 Q212.965,372.883 214.972,374.362 Q216.979,375.842 217.477,377.775 Q217.975,379.709 217.975,384.338 L217.975,400.715 Q217.975,406.018 217.345,408.259 Q216.715,410.5 214.767,411.833 Q212.818,413.166 210.064,413.166 Q207.867,413.166 205.992,412.141 Q204.117,411.115 202.564,409.094 L202.564,418 L190.729,418 L190.729,373.586 z M206.139,384.895 Q206.139,381.291 205.875,380.529 Q205.611,379.768 204.41,379.768 Q203.238,379.768 202.901,380.646 Q202.564,381.525 202.564,384.895 L202.564,401.008 Q202.564,404.523 202.916,405.402 Q203.268,406.281 204.439,406.281 Q205.582,406.281 205.86,405.476 Q206.139,404.67 206.139,401.564 z" fill="#0674D8"/>
      </g>
      <g>
        <path d="M234.703,372.883 Q240.709,372.883 243.756,375.007 Q246.803,377.131 247.418,380.222 Q248.033,383.312 248.033,392.951 L248.033,412.463 L236.52,412.463 L236.52,409.006 Q235.436,411.086 233.722,412.126 Q232.008,413.166 229.635,413.166 Q226.529,413.166 223.937,411.423 Q221.344,409.68 221.344,403.791 L221.344,400.598 Q221.344,396.232 222.721,394.65 Q224.098,393.068 229.547,390.959 Q235.377,388.674 235.787,387.883 Q236.197,387.092 236.197,384.66 Q236.197,381.613 235.743,380.69 Q235.289,379.768 234.234,379.768 Q233.033,379.768 232.74,380.544 Q232.447,381.32 232.447,384.572 L232.447,388.645 L221.344,388.645 L221.344,386.037 Q221.344,381.525 222.384,379.079 Q223.424,376.633 226.559,374.758 Q229.693,372.883 234.703,372.883 z M236.197,393.977 Q233.355,396.057 232.901,397.463 Q232.447,398.869 232.447,401.506 Q232.447,404.523 232.843,405.402 Q233.238,406.281 234.41,406.281 Q235.523,406.281 235.86,405.593 Q236.197,404.904 236.197,401.975 L236.197,393.977 z" clip-path="url(#Clip_9)" filter="url(#Shadow_10)" fill="rgba(0,0,0,1)"/>
        <path d="M232.447,388.645 L221.344,388.645 L221.344,386.037 Q221.344,381.525 222.384,379.079 Q223.424,376.633 226.559,374.758 Q229.693,372.883 234.703,372.883 Q240.709,372.883 243.756,375.007 Q246.803,377.131 247.418,380.222 Q248.033,383.312 248.033,392.951 L248.033,412.463 L236.52,412.463 L236.52,409.006 Q235.436,411.086 233.722,412.126 Q232.008,413.166 229.635,413.166 Q226.529,413.166 223.937,411.423 Q221.344,409.68 221.344,403.791 L221.344,400.598 Q221.344,396.232 222.721,394.65 Q224.098,393.068 229.547,390.959 Q235.377,388.674 235.787,387.883 Q236.197,387.092 236.197,384.66 Q236.197,381.613 235.743,380.69 Q235.289,379.768 234.234,379.768 Q233.033,379.768 232.74,380.544 Q232.447,381.32 232.447,384.572 z M236.197,393.977 Q233.355,396.057 232.901,397.463 Q232.447,398.869 232.447,401.506 Q232.447,404.523 232.843,405.402 Q233.238,406.281 234.41,406.281 Q235.523,406.281 235.86,405.593 Q236.197,404.904 236.197,401.975 z" fill="#0674D8"/>
      </g>
      <g>
        <path d="M270.943,372.883 L270.943,386.564 Q267.691,386.564 266.168,387.443 Q264.645,388.322 264.293,389.89 Q263.941,391.457 263.941,397.111 L263.941,412.463 L252.105,412.463 L252.105,373.586 L263.941,373.586 L263.473,378.684 Q266.051,373.205 270.943,372.883 z" clip-path="url(#Clip_11)" filter="url(#Shadow_12)" fill="rgba(0,0,0,1)"/>
        <path d="M263.941,373.586 L263.473,378.684 Q266.051,373.205 270.943,372.883 L270.943,386.564 Q267.691,386.564 266.168,387.443 Q264.645,388.322 264.293,389.89 Q263.941,391.457 263.941,397.111 L263.941,412.463 L252.105,412.463 L252.105,373.586 z" fill="#0674D8"/>
      </g>
      <g>
        <path d="M286.324,372.883 Q291.305,372.883 294.542,374.772 Q297.779,376.662 299.083,379.782 Q300.387,382.902 300.387,388.557 L300.387,393.713 L285.064,393.713 L285.064,402.121 Q285.064,404.758 285.445,405.52 Q285.826,406.281 286.91,406.281 Q288.258,406.281 288.712,405.271 Q289.166,404.26 289.166,401.359 L289.166,396.232 L300.387,396.232 L300.387,399.103 Q300.387,402.707 299.933,404.641 Q299.479,406.574 297.809,408.771 Q296.139,410.969 293.575,412.067 Q291.012,413.166 287.145,413.166 Q283.395,413.166 280.523,412.082 Q277.652,410.998 276.056,409.108 Q274.459,407.219 273.844,404.948 Q273.229,402.678 273.229,398.342 L273.228,387.004 Q273.229,381.906 274.605,378.962 Q275.982,376.018 279.117,374.45 Q282.252,372.883 286.324,372.883 z M286.881,379.767 Q285.65,379.768 285.357,380.515 Q285.064,381.262 285.064,384.543 L285.064,387.385 L288.521,387.385 L288.521,384.543 Q288.521,381.525 288.199,380.646 Q287.877,379.768 286.881,379.768 z" clip-path="url(#Clip_13)" filter="url(#Shadow_14)" fill="rgba(0,0,0,1)"/>
        <path d="M300.387,393.713 L285.064,393.713 L285.064,402.121 Q285.064,404.758 285.445,405.52 Q285.826,406.281 286.91,406.281 Q288.258,406.281 288.712,405.271 Q289.166,404.26 289.166,401.359 L289.166,396.232 L300.387,396.232 L300.387,399.104 Q300.387,402.707 299.933,404.641 Q299.479,406.574 297.809,408.771 Q296.139,410.969 293.575,412.067 Q291.012,413.166 287.145,413.166 Q283.395,413.166 280.523,412.082 Q277.652,410.998 276.056,409.108 Q274.459,407.219 273.844,404.948 Q273.229,402.678 273.229,398.342 L273.229,387.004 Q273.229,381.906 274.605,378.962 Q275.982,376.018 279.117,374.45 Q282.252,372.883 286.324,372.883 Q291.305,372.883 294.542,374.772 Q297.779,376.662 299.083,379.782 Q300.387,382.902 300.387,388.557 z M288.521,387.385 L288.521,384.543 Q288.521,381.525 288.199,380.646 Q287.877,379.768 286.881,379.768 Q285.65,379.768 285.357,380.515 Q285.064,381.262 285.064,384.543 L285.064,387.385 z" fill="#0674D8"/>
      </g>
      <g>
        <path d="M329.918,365.031 L329.918,371.037 Q326.256,371.037 325.597,371.374 Q324.938,371.711 324.938,373.293 L324.937,374.523 L329.918,374.523 L329.918,380.676 L327.105,380.676 L327.105,412.463 L315.27,412.463 L315.27,380.676 L312.838,380.676 L312.838,374.523 L315.27,374.523 Q315.27,370.686 315.533,369.396 Q315.797,368.107 316.837,367.097 Q317.877,366.086 319.752,365.559 Q321.627,365.031 325.582,365.031 L329.918,365.031 z" clip-path="url(#Clip_15)" filter="url(#Shadow_16)" fill="rgba(0,0,0,1)"/>
        <path d="M329.918,365.031 L329.918,371.037 Q326.256,371.037 325.597,371.374 Q324.938,371.711 324.938,373.293 L324.938,374.523 L329.918,374.523 L329.918,380.676 L327.105,380.676 L327.105,412.463 L315.27,412.463 L315.27,380.676 L312.838,380.676 L312.838,374.523 L315.27,374.523 Q315.27,370.686 315.533,369.396 Q315.797,368.107 316.837,367.097 Q317.877,366.086 319.752,365.559 Q321.627,365.031 325.582,365.031 z" fill="#0674D8"/>
      </g>
      <g>
        <path d="M345.006,372.883 Q348.99,372.883 351.847,374.069 Q354.703,375.256 356.256,377.16 Q357.809,379.064 358.38,381.086 Q358.951,383.107 358.951,387.238 L358.951,396.76 Q358.951,402.004 358.424,404.45 Q357.896,406.896 356.168,409.021 Q354.439,411.145 351.729,412.155 Q349.02,413.166 345.504,413.166 Q341.578,413.166 338.854,412.302 Q336.129,411.438 334.62,409.694 Q333.111,407.951 332.467,405.476 Q331.822,403 331.822,398.049 L331.822,388.088 Q331.822,382.668 332.994,379.621 Q334.166,376.574 337.213,374.729 Q340.26,372.883 345.006,372.883 z M345.416,379.767 Q344.361,379.768 344.01,380.544 Q343.658,381.32 343.658,384.309 L343.658,401.857 Q343.658,404.611 344.01,405.446 Q344.361,406.281 345.387,406.281 Q346.441,406.281 346.778,405.52 Q347.115,404.758 347.115,402.238 L347.115,384.309 Q347.115,381.32 346.793,380.544 Q346.471,379.768 345.416,379.768 z" clip-path="url(#Clip_17)" filter="url(#Shadow_18)" fill="rgba(0,0,0,1)"/>
        <path d="M358.951,387.238 L358.951,396.76 Q358.951,402.004 358.424,404.45 Q357.896,406.896 356.168,409.021 Q354.439,411.145 351.729,412.155 Q349.02,413.166 345.504,413.166 Q341.578,413.166 338.854,412.302 Q336.129,411.438 334.62,409.694 Q333.111,407.951 332.467,405.476 Q331.822,403 331.822,398.049 L331.822,388.088 Q331.822,382.668 332.994,379.621 Q334.166,376.574 337.213,374.729 Q340.26,372.883 345.006,372.883 Q348.99,372.883 351.847,374.069 Q354.703,375.256 356.256,377.16 Q357.809,379.064 358.38,381.086 Q358.951,383.107 358.951,387.238 z M347.115,384.309 Q347.115,381.32 346.793,380.544 Q346.471,379.768 345.416,379.768 Q344.361,379.768 344.01,380.544 Q343.658,381.32 343.658,384.309 L343.658,401.857 Q343.658,404.611 344.01,405.446 Q344.361,406.281 345.387,406.281 Q346.441,406.281 346.778,405.52 Q347.115,404.758 347.115,402.238 z" fill="#0674D8"/>
      </g>
      <g>
        <path d="M381.685,372.883 L381.685,386.564 Q378.434,386.564 376.91,387.443 Q375.387,388.322 375.035,389.89 Q374.684,391.457 374.684,397.111 L374.684,412.463 L362.848,412.463 L362.848,373.586 L374.684,373.586 L374.215,378.684 Q376.793,373.205 381.686,372.883 z" clip-path="url(#Clip_19)" filter="url(#Shadow_20)" fill="rgba(0,0,0,1)"/>
        <path d="M374.684,373.586 L374.215,378.684 Q376.793,373.205 381.686,372.883 L381.686,386.564 Q378.434,386.564 376.91,387.443 Q375.387,388.322 375.035,389.89 Q374.684,391.457 374.684,397.111 L374.684,412.463 L362.848,412.463 L362.848,373.586 z" fill="#0674D8"/>
      </g>
      <g>
        <path d="M403.189,373.586 L407.057,399.807 L408.932,373.586 L419.684,373.586 L416.285,401.711 Q415.494,408.391 414.952,410.822 Q414.41,413.254 413.15,414.836 Q411.891,416.418 409.649,417.165 Q407.408,417.912 402.486,417.912 L395.309,417.912 L395.309,411.701 Q398.062,411.701 398.854,411.423 Q399.645,411.145 399.645,410.178 Q399.645,409.709 398.912,406.105 L392.437,373.586 L403.189,373.586 z" clip-path="url(#Clip_21)" filter="url(#Shadow_22)" fill="rgba(0,0,0,1)"/>
        <path d="M419.684,373.586 L416.285,401.711 Q415.494,408.391 414.952,410.822 Q414.41,413.254 413.15,414.836 Q411.891,416.418 409.649,417.165 Q407.408,417.912 402.486,417.912 L395.309,417.912 L395.309,411.701 Q398.062,411.701 398.854,411.423 Q399.645,411.145 399.645,410.178 Q399.645,409.709 398.912,406.105 L392.438,373.586 L403.189,373.586 L407.057,399.807 L408.932,373.586 z" fill="#0674D8"/>
      </g>
      <g>
        <path d="M434.625,372.883 Q438.609,372.883 441.466,374.069 Q444.322,375.256 445.875,377.16 Q447.428,379.064 447.999,381.086 Q448.57,383.107 448.57,387.238 L448.57,396.76 Q448.57,402.004 448.043,404.45 Q447.516,406.896 445.787,409.021 Q444.059,411.145 441.349,412.155 Q438.639,413.166 435.123,413.166 Q431.197,413.166 428.473,412.302 Q425.748,411.438 424.239,409.694 Q422.73,407.951 422.086,405.476 Q421.441,403 421.441,398.049 L421.441,388.088 Q421.441,382.668 422.613,379.621 Q423.785,376.574 426.832,374.729 Q429.879,372.883 434.625,372.883 z M435.035,379.767 Q433.98,379.768 433.629,380.544 Q433.277,381.32 433.277,384.309 L433.277,401.857 Q433.277,404.611 433.629,405.446 Q433.98,406.281 435.006,406.281 Q436.061,406.281 436.397,405.52 Q436.734,404.758 436.734,402.238 L436.734,384.309 Q436.734,381.32 436.412,380.544 Q436.09,379.768 435.035,379.768 z" clip-path="url(#Clip_23)" filter="url(#Shadow_24)" fill="rgba(0,0,0,1)"/>
        <path d="M448.57,387.238 L448.57,396.76 Q448.57,402.004 448.043,404.45 Q447.516,406.896 445.787,409.021 Q444.059,411.145 441.349,412.155 Q438.639,413.166 435.123,413.166 Q431.197,413.166 428.473,412.302 Q425.748,411.438 424.239,409.694 Q422.73,407.951 422.086,405.476 Q421.441,403 421.441,398.049 L421.441,388.088 Q421.441,382.668 422.613,379.621 Q423.785,376.574 426.832,374.729 Q429.879,372.883 434.625,372.883 Q438.609,372.883 441.466,374.069 Q444.322,375.256 445.875,377.16 Q447.428,379.064 447.999,381.086 Q448.57,383.107 448.57,387.238 z M436.734,384.309 Q436.734,381.32 436.412,380.544 Q436.09,379.768 435.035,379.768 Q433.98,379.768 433.629,380.544 Q433.277,381.32 433.277,384.309 L433.277,401.857 Q433.277,404.611 433.629,405.446 Q433.98,406.281 435.006,406.281 Q436.061,406.281 436.397,405.52 Q436.734,404.758 436.734,402.238 z" fill="#0674D8"/>
      </g>
      <g>
        <path d="M464.127,373.586 L464.127,400.041 Q464.127,404.582 464.405,405.432 Q464.684,406.281 465.914,406.281 Q467.232,406.281 467.481,405.402 Q467.73,404.523 467.73,399.748 L467.73,373.586 L479.566,373.586 L479.566,412.463 L467.525,412.463 L467.73,409.24 Q466.5,411.203 464.698,412.185 Q462.896,413.166 460.553,413.166 Q457.887,413.166 456.129,412.229 Q454.371,411.291 453.536,409.738 Q452.701,408.186 452.496,406.501 Q452.291,404.816 452.291,399.807 L452.291,373.586 L464.127,373.586 z" clip-path="url(#Clip_25)" filter="url(#Shadow_26)" fill="rgba(0,0,0,1)"/>
        <path d="M479.566,373.586 L479.566,412.463 L467.525,412.463 L467.73,409.24 Q466.5,411.203 464.698,412.185 Q462.896,413.166 460.553,413.166 Q457.887,413.166 456.129,412.229 Q454.371,411.291 453.536,409.738 Q452.701,408.186 452.496,406.501 Q452.291,404.816 452.291,399.807 L452.291,373.586 L464.127,373.586 L464.127,400.041 Q464.127,404.582 464.405,405.432 Q464.684,406.281 465.914,406.281 Q467.232,406.281 467.481,405.402 Q467.73,404.523 467.73,399.748 L467.73,373.586 z" fill="#0674D8"/>
      </g>
      <g>
        <path d="M502.652,372.883 L502.652,386.564 Q499.4,386.564 497.877,387.443 Q496.354,388.322 496.002,389.89 Q495.65,391.457 495.65,397.111 L495.65,412.463 L483.814,412.463 L483.814,373.586 L495.65,373.586 L495.182,378.684 Q497.76,373.205 502.652,372.883 z" clip-path="url(#Clip_27)" filter="url(#Shadow_28)" fill="rgba(0,0,0,1)"/>
        <path d="M495.65,373.586 L495.182,378.684 Q497.76,373.205 502.652,372.883 L502.652,386.564 Q499.4,386.564 497.877,387.443 Q496.354,388.322 496.002,389.89 Q495.65,391.457 495.65,397.111 L495.65,412.463 L483.814,412.463 L483.814,373.586 z" fill="#0674D8"/>
      </g>
      <g>
        <path d="M537.105,365.031 L537.105,374.523 L528.551,374.523 L528.551,383.517 L536.168,383.517 L536.168,392.541 L528.551,392.541 L528.551,412.463 L516.217,412.463 L516.217,365.031 L537.105,365.031 z" clip-path="url(#Clip_29)" filter="url(#Shadow_30)" fill="rgba(0,0,0,1)"/>
        <path d="M516.217,365.031 L537.105,365.031 L537.105,374.523 L528.551,374.523 L528.551,383.518 L536.168,383.518 L536.168,392.541 L528.551,392.541 L528.551,412.463 L516.217,412.463 z" fill="#0674D8"/>
      </g>
      <g>
        <path d="M551.402,373.586 L551.402,400.041 Q551.402,404.582 551.681,405.432 Q551.959,406.281 553.189,406.281 Q554.508,406.281 554.757,405.402 Q555.006,404.523 555.006,399.748 L555.006,373.586 L566.842,373.586 L566.842,412.463 L554.801,412.463 L555.006,409.24 Q553.775,411.203 551.974,412.185 Q550.172,413.166 547.828,413.166 Q545.162,413.166 543.404,412.229 Q541.646,411.291 540.812,409.738 Q539.977,408.186 539.771,406.501 Q539.566,404.816 539.566,399.807 L539.566,373.586 L551.402,373.586 z" clip-path="url(#Clip_31)" filter="url(#Shadow_32)" fill="rgba(0,0,0,1)"/>
        <path d="M566.842,373.586 L566.842,412.463 L554.801,412.463 L555.006,409.24 Q553.775,411.203 551.974,412.185 Q550.172,413.166 547.828,413.166 Q545.162,413.166 543.404,412.229 Q541.646,411.291 540.812,409.738 Q539.977,408.186 539.771,406.501 Q539.566,404.816 539.566,399.807 L539.566,373.586 L551.402,373.586 L551.402,400.041 Q551.402,404.582 551.681,405.432 Q551.959,406.281 553.189,406.281 Q554.508,406.281 554.757,405.402 Q555.006,404.523 555.006,399.748 L555.006,373.586 z" fill="#0674D8"/>
      </g>
      <g>
        <path d="M583.57,368.4 L583.57,374.523 L586.764,374.523 L586.764,380.676 L583.57,380.676 L583.57,401.477 Q583.57,405.314 583.966,405.754 Q584.361,406.193 587.262,406.193 L587.262,412.463 L582.486,412.463 Q578.443,412.463 576.715,412.126 Q574.986,411.789 573.668,410.573 Q572.35,409.357 572.027,407.79 Q571.705,406.223 571.705,400.422 L571.705,380.676 L569.156,380.676 L569.156,374.523 L571.705,374.523 L571.705,368.4 L583.57,368.4 z" clip-path="url(#Clip_33)" filter="url(#Shadow_34)" fill="rgba(0,0,0,1)"/>
        <path d="M583.57,368.4 L583.57,374.523 L586.764,374.523 L586.764,380.676 L583.57,380.676 L583.57,401.477 Q583.57,405.314 583.966,405.754 Q584.361,406.193 587.262,406.193 L587.262,412.463 L582.486,412.463 Q578.443,412.463 576.715,412.126 Q574.986,411.789 573.668,410.573 Q572.35,409.357 572.027,407.79 Q571.705,406.223 571.705,400.422 L571.705,380.676 L569.156,380.676 L569.156,374.523 L571.705,374.523 L571.705,368.4 z" fill="#0674D8"/>
      </g>
      <g>
        <path d="M601.031,373.586 L601.031,400.041 Q601.031,404.582 601.31,405.432 Q601.588,406.281 602.818,406.281 Q604.137,406.281 604.386,405.402 Q604.635,404.523 604.635,399.748 L604.635,373.586 L616.471,373.586 L616.471,412.463 L604.43,412.463 L604.635,409.24 Q603.404,411.203 601.603,412.185 Q599.801,413.166 597.457,413.166 Q594.791,413.166 593.033,412.229 Q591.275,411.291 590.44,409.738 Q589.605,408.186 589.4,406.501 Q589.195,404.816 589.195,399.807 L589.195,373.586 L601.031,373.586 z" clip-path="url(#Clip_35)" filter="url(#Shadow_36)" fill="rgba(0,0,0,1)"/>
        <path d="M616.471,373.586 L616.471,412.463 L604.43,412.463 L604.635,409.24 Q603.404,411.203 601.603,412.185 Q599.801,413.166 597.457,413.166 Q594.791,413.166 593.033,412.229 Q591.275,411.291 590.44,409.738 Q589.605,408.186 589.4,406.501 Q589.195,404.816 589.195,399.807 L589.195,373.586 L601.031,373.586 L601.031,400.041 Q601.031,404.582 601.31,405.432 Q601.588,406.281 602.818,406.281 Q604.137,406.281 604.386,405.402 Q604.635,404.523 604.635,399.748 L604.635,373.586 z" fill="#0674D8"/>
      </g>
      <g>
        <path d="M639.557,372.883 L639.557,386.564 Q636.305,386.564 634.781,387.443 Q633.258,388.322 632.906,389.89 Q632.555,391.457 632.555,397.111 L632.555,412.463 L620.719,412.463 L620.719,373.586 L632.555,373.586 L632.086,378.684 Q634.664,373.205 639.557,372.883 z" clip-path="url(#Clip_37)" filter="url(#Shadow_38)" fill="rgba(0,0,0,1)"/>
        <path d="M632.555,373.586 L632.086,378.684 Q634.664,373.205 639.557,372.883 L639.557,386.564 Q636.305,386.564 634.781,387.443 Q633.258,388.322 632.906,389.89 Q632.555,391.457 632.555,397.111 L632.555,412.463 L620.719,412.463 L620.719,373.586 z" fill="#0674D8"/>
      </g>
      <g>
        <path d="M654.938,372.883 Q659.918,372.883 663.155,374.772 Q666.393,376.662 667.696,379.782 Q669,382.902 669,388.557 L669,393.713 L653.678,393.713 L653.678,402.121 Q653.678,404.758 654.059,405.52 Q654.439,406.281 655.523,406.281 Q656.871,406.281 657.325,405.271 Q657.779,404.26 657.779,401.359 L657.779,396.232 L669,396.232 L669,399.103 Q669,402.707 668.546,404.641 Q668.092,406.574 666.422,408.771 Q664.752,410.969 662.188,412.067 Q659.625,413.166 655.758,413.166 Q652.008,413.166 649.137,412.082 Q646.266,410.998 644.669,409.108 Q643.072,407.219 642.457,404.948 Q641.842,402.678 641.842,398.342 L641.842,387.004 Q641.842,381.906 643.219,378.962 Q644.596,376.018 647.73,374.45 Q650.865,372.883 654.938,372.883 z M655.494,379.767 Q654.264,379.768 653.971,380.515 Q653.678,381.262 653.678,384.543 L653.678,387.385 L657.135,387.385 L657.135,384.543 Q657.135,381.525 656.812,380.646 Q656.49,379.768 655.494,379.768 z" clip-path="url(#Clip_39)" filter="url(#Shadow_40)" fill="rgba(0,0,0,1)"/>
        <path d="M669,393.713 L653.678,393.713 L653.678,402.121 Q653.678,404.758 654.059,405.52 Q654.439,406.281 655.523,406.281 Q656.871,406.281 657.325,405.271 Q657.779,404.26 657.779,401.359 L657.779,396.232 L669,396.232 L669,399.104 Q669,402.707 668.546,404.641 Q668.092,406.574 666.422,408.771 Q664.752,410.969 662.188,412.067 Q659.625,413.166 655.758,413.166 Q652.008,413.166 649.137,412.082 Q646.266,410.998 644.669,409.108 Q643.072,407.219 642.457,404.948 Q641.842,402.678 641.842,398.342 L641.842,387.004 Q641.842,381.906 643.219,378.962 Q644.596,376.018 647.73,374.45 Q650.865,372.883 654.938,372.883 Q659.918,372.883 663.155,374.772 Q666.393,376.662 667.696,379.782 Q669,382.902 669,388.557 z M657.135,387.385 L657.135,384.543 Q657.135,381.525 656.812,380.646 Q656.49,379.768 655.494,379.768 Q654.264,379.768 653.971,380.515 Q653.678,381.262 653.678,384.543 L653.678,387.385 z" fill="#0674D8"/>
      </g>
    </g>
  </g>
</svg>
