<?xml version="1.0" encoding="UTF-8"?>
<!DOCTYPE svg PUBLIC "-//W3C//DTD SVG 1.1//EN" "http://www.w3.org/Graphics/SVG/1.1/DTD/svg11.dtd">
<svg version="1.1" xmlns="http://www.w3.org/2000/svg" xmlns:xlink="http://www.w3.org/1999/xlink" x="0" y="0" width="416.189" height="56.424" viewBox="0, 0, 416.189, 56.424">
  <defs>
    <clipPath id="Clip_1">
      <path d="M185.094,641.568 L214.928,641.568 L214.928,699 L185.094,699 z M202.428,646.568 L190.094,646.568 L190.094,694 L209.928,694 L209.928,684.508 L202.428,684.508 L202.428,646.568 z"/>
    </clipPath>
    <filter id="Shadow_2">
      <feGaussianBlur in="SourceAlpha" stdDeviation="1.5"/>
      <feOffset dx="1" dy="1" result="offsetblur"/>
      <feFlood flood-color="#AAAAAA"/>
      <feComposite in2="offsetblur" operator="in"/>
    </filter>
    <clipPath id="Clip_3">
      <path d="M207.213,649.42 L244.371,649.42 L244.371,699.703 L207.213,699.703 z M225.865,661.305 Q226.861,661.305 227.184,662.184 Q227.506,663.062 227.506,666.08 L227.506,668.922 L224.049,668.922 L224.049,666.08 Q224.049,662.799 224.342,662.052 Q224.635,661.305 225.865,661.305 z M225.309,654.42 Q221.236,654.42 218.102,655.987 Q214.967,657.555 213.59,660.499 Q212.213,663.443 212.213,668.541 L212.213,679.879 Q212.213,684.215 212.828,686.485 Q213.443,688.756 215.04,690.646 Q216.637,692.535 219.508,693.619 Q222.379,694.703 226.129,694.703 Q229.996,694.703 232.56,693.604 Q235.123,692.506 236.793,690.309 Q238.463,688.111 238.917,686.178 Q239.371,684.244 239.371,680.641 L239.371,677.769 L228.15,677.769 L228.15,682.896 Q228.15,685.797 227.696,686.808 Q227.242,687.818 225.895,687.818 Q224.811,687.818 224.43,687.057 Q224.049,686.295 224.049,683.658 L224.049,675.25 L239.371,675.25 L239.371,670.094 Q239.371,664.439 238.067,661.319 Q236.764,658.199 233.526,656.31 Q230.289,654.42 225.309,654.42 z"/>
    </clipPath>
    <filter id="Shadow_4">
      <feGaussianBlur in="SourceAlpha" stdDeviation="1.5"/>
      <feOffset dx="1" dy="1" result="offsetblur"/>
      <feFlood flood-color="#AAAAAA"/>
      <feComposite in2="offsetblur" operator="in"/>
    </filter>
    <clipPath id="Clip_5">
      <path d="M236.305,644.938 L264.41,644.938 L264.41,699 L236.305,699 z M255.719,649.938 L243.854,649.938 L243.854,656.06 L241.305,656.06 L241.305,662.213 L243.854,662.213 L243.854,681.959 Q243.854,687.76 244.176,689.327 Q244.498,690.895 245.816,692.11 Q247.135,693.326 248.863,693.663 Q250.592,694 254.635,694 L259.41,694 L259.41,687.73 Q256.51,687.73 256.114,687.291 Q255.719,686.852 255.719,683.014 L255.719,662.213 L258.912,662.213 L258.912,656.06 L255.719,656.06 L255.719,649.938 z"/>
    </clipPath>
    <filter id="Shadow_6">
      <feGaussianBlur in="SourceAlpha" stdDeviation="1.5"/>
      <feOffset dx="1" dy="1" result="offsetblur"/>
      <feFlood flood-color="#AAAAAA"/>
      <feComposite in2="offsetblur" operator="in"/>
    </filter>
    <clipPath id="Clip_7">
      <path d="M266.744,649.42 L302.701,649.42 L302.701,699.703 L266.744,699.703 z M283.99,654.42 Q280.094,654.42 277.149,655.621 Q274.205,656.822 272.975,659.034 Q271.744,661.246 271.744,665.904 Q271.744,669.186 272.887,671.573 Q274.029,673.961 279.244,676.891 Q285.455,680.348 286.129,681.051 Q286.773,681.754 286.773,684.537 Q286.773,686.559 286.275,687.188 Q285.777,687.818 284.518,687.818 Q283.346,687.818 282.95,686.881 Q282.555,685.943 282.555,682.808 L282.555,680.348 L272.066,680.348 L272.066,682.223 Q272.066,687.086 273.268,689.488 Q274.469,691.891 277.677,693.297 Q280.885,694.703 285.396,694.703 Q289.469,694.703 292.354,693.399 Q295.24,692.096 296.471,689.679 Q297.701,687.262 297.701,682.516 Q297.701,678.268 296.09,676.041 Q294.479,673.814 289.322,671.295 Q285.455,669.391 284.21,668.395 Q282.965,667.398 282.716,666.563 Q282.467,665.729 282.467,663.941 Q282.467,662.623 282.965,661.964 Q283.463,661.305 284.459,661.305 Q285.689,661.305 285.997,662.022 Q286.305,662.74 286.305,665.435 L286.305,667.545 L296.793,667.545 L296.793,665.289 Q296.793,662.359 296.485,660.982 Q296.178,659.605 294.728,657.994 Q293.277,656.383 290.567,655.401 Q287.857,654.42 283.99,654.42 z"/>
    </clipPath>
    <filter id="Shadow_8">
      <feGaussianBlur in="SourceAlpha" stdDeviation="1.5"/>
      <feOffset dx="1" dy="1" result="offsetblur"/>
      <feFlood flood-color="#AAAAAA"/>
      <feComposite in2="offsetblur" operator="in"/>
    </filter>
    <clipPath id="Clip_9">
      <path d="M306.441,640.572 L345.094,640.572 L345.094,699.996 L306.441,699.996 z M325.357,645.572 Q319.85,645.572 316.378,648.136 Q312.906,650.699 312.174,653.775 Q311.441,656.852 311.441,663.648 L311.441,677.74 Q311.441,682.633 311.793,685.079 Q312.145,687.525 313.551,689.752 Q314.957,691.979 317.667,693.487 Q320.377,694.996 323.482,694.996 Q326.09,694.996 328.009,693.897 Q329.928,692.799 331.188,690.602 L332.33,694 L340.094,694 L340.094,668.541 L325.65,668.541 L325.65,675.748 L328.141,675.748 L328.141,681.373 Q328.141,684.684 327.657,685.826 Q327.174,686.969 325.826,686.969 Q324.596,686.969 324.186,685.958 Q323.775,684.947 323.775,681.754 L323.775,658.99 Q323.775,655.357 324.186,654.479 Q324.596,653.6 325.738,653.6 Q327.057,653.6 327.408,654.625 Q327.76,655.65 327.76,659.723 L327.76,664.029 L340.094,664.029 L340.094,661.979 Q340.094,656.148 339.01,653.087 Q337.926,650.025 334.352,647.799 Q330.777,645.572 325.357,645.572 z"/>
    </clipPath>
    <filter id="Shadow_10">
      <feGaussianBlur in="SourceAlpha" stdDeviation="1.5"/>
      <feOffset dx="1" dy="1" result="offsetblur"/>
      <feFlood flood-color="#AAAAAA"/>
      <feComposite in2="offsetblur" operator="in"/>
    </filter>
    <clipPath id="Clip_11">
      <path d="M339.166,649.42 L376.324,649.42 L376.324,699.703 L339.166,699.703 z M357.818,661.305 Q358.814,661.305 359.137,662.184 Q359.459,663.062 359.459,666.08 L359.459,668.922 L356.002,668.922 L356.002,666.08 Q356.002,662.799 356.295,662.052 Q356.588,661.305 357.818,661.305 z M357.262,654.42 Q353.189,654.42 350.055,655.987 Q346.92,657.555 345.543,660.499 Q344.166,663.443 344.166,668.541 L344.166,679.879 Q344.166,684.215 344.781,686.485 Q345.396,688.756 346.993,690.646 Q348.59,692.535 351.461,693.619 Q354.332,694.703 358.082,694.703 Q361.949,694.703 364.513,693.604 Q367.076,692.506 368.746,690.309 Q370.416,688.111 370.87,686.178 Q371.324,684.244 371.324,680.641 L371.324,677.769 L360.103,677.769 L360.104,682.896 Q360.104,685.797 359.649,686.808 Q359.195,687.818 357.848,687.818 Q356.764,687.818 356.383,687.057 Q356.002,686.295 356.002,683.658 L356.002,675.25 L371.324,675.25 L371.324,670.094 Q371.324,664.439 370.021,661.319 Q368.717,658.199 365.479,656.31 Q362.242,654.42 357.262,654.42 z"/>
    </clipPath>
    <filter id="Shadow_12">
      <feGaussianBlur in="SourceAlpha" stdDeviation="1.5"/>
      <feOffset dx="1" dy="1" result="offsetblur"/>
      <feFlood flood-color="#AAAAAA"/>
      <feComposite in2="offsetblur" operator="in"/>
    </filter>
    <clipPath id="Clip_13">
      <path d="M368.258,644.938 L396.363,644.938 L396.363,699 L368.258,699 z M387.672,649.938 L375.807,649.938 L375.807,656.06 L373.258,656.06 L373.258,662.213 L375.807,662.213 L375.807,681.959 Q375.807,687.76 376.129,689.327 Q376.451,690.895 377.77,692.11 Q379.088,693.326 380.816,693.663 Q382.545,694 386.588,694 L391.363,694 L391.363,687.73 Q388.463,687.73 388.067,687.291 Q387.672,686.852 387.672,683.014 L387.672,662.213 L390.865,662.213 L390.865,656.06 L387.672,656.06 L387.672,649.938 z"/>
    </clipPath>
    <filter id="Shadow_14">
      <feGaussianBlur in="SourceAlpha" stdDeviation="1.5"/>
      <feOffset dx="1" dy="1" result="offsetblur"/>
      <feFlood flood-color="#AAAAAA"/>
      <feComposite in2="offsetblur" operator="in"/>
    </filter>
    <clipPath id="Clip_15">
      <path d="M398.375,640.572 L436.559,640.572 L436.559,699.996 L398.375,699.996 z M416.764,645.572 Q412.369,645.572 409.264,646.993 Q406.158,648.414 404.767,650.934 Q403.375,653.453 403.375,658.902 Q403.375,662.682 404.356,665.113 Q405.338,667.545 406.832,668.922 Q408.326,670.299 412.926,673.346 Q417.525,676.363 418.697,677.652 Q419.84,678.941 419.84,683.131 Q419.84,685.035 419.239,686.002 Q418.639,686.969 417.408,686.969 Q416.178,686.969 415.694,686.207 Q415.211,685.445 415.211,682.779 L415.211,677.008 L403.756,677.008 L403.756,680.113 Q403.756,685.445 404.84,688.346 Q405.924,691.246 409.425,693.121 Q412.926,694.996 417.877,694.996 Q422.389,694.996 425.787,693.37 Q429.186,691.744 430.372,689.342 Q431.559,686.939 431.559,681.871 Q431.559,674.898 429.42,671.764 Q427.281,668.629 419.049,663.736 Q416.178,662.037 415.562,660.836 Q414.918,659.635 414.918,657.262 Q414.918,655.416 415.489,654.508 Q416.061,653.6 417.174,653.6 Q418.199,653.6 418.639,654.273 Q419.078,654.947 419.078,657.408 L419.078,660.924 L430.533,660.924 L430.533,659.049 Q430.533,653.395 429.435,651.036 Q428.336,648.678 424.952,647.125 Q421.568,645.572 416.764,645.572 z"/>
    </clipPath>
    <filter id="Shadow_16">
      <feGaussianBlur in="SourceAlpha" stdDeviation="1.5"/>
      <feOffset dx="1" dy="1" result="offsetblur"/>
      <feFlood flood-color="#AAAAAA"/>
      <feComposite in2="offsetblur" operator="in"/>
    </filter>
    <clipPath id="Clip_17">
      <path d="M428.141,644.938 L456.246,644.938 L456.246,699 L428.141,699 z M447.555,649.938 L435.689,649.938 L435.689,656.06 L433.141,656.06 L433.141,662.213 L435.689,662.213 L435.689,681.959 Q435.689,687.76 436.012,689.327 Q436.334,690.895 437.652,692.11 Q438.971,693.326 440.699,693.663 Q442.428,694 446.471,694 L451.246,694 L451.246,687.73 Q448.346,687.73 447.95,687.291 Q447.555,686.852 447.555,683.014 L447.555,662.213 L450.748,662.213 L450.748,656.06 L447.555,656.06 L447.555,649.938 z"/>
    </clipPath>
    <filter id="Shadow_18">
      <feGaussianBlur in="SourceAlpha" stdDeviation="1.5"/>
      <feOffset dx="1" dy="1" result="offsetblur"/>
      <feFlood flood-color="#AAAAAA"/>
      <feComposite in2="offsetblur" operator="in"/>
    </filter>
    <clipPath id="Clip_19">
      <path d="M447.828,649.42 L484.518,649.42 L484.518,699.703 L447.828,699.703 z M467.682,675.514 L467.682,683.512 Q467.682,686.441 467.345,687.13 Q467.008,687.818 465.895,687.818 Q464.723,687.818 464.327,686.939 Q463.932,686.061 463.932,683.043 Q463.932,680.406 464.386,679 Q464.84,677.594 467.682,675.514 z M466.188,654.42 Q461.178,654.42 458.043,656.295 Q454.908,658.17 453.868,660.616 Q452.828,663.062 452.828,667.574 L452.828,670.182 L463.932,670.182 L463.932,666.109 Q463.932,662.857 464.225,662.081 Q464.518,661.305 465.719,661.305 Q466.773,661.305 467.228,662.228 Q467.682,663.15 467.682,666.197 Q467.682,668.629 467.271,669.42 Q466.861,670.211 461.031,672.496 Q455.582,674.605 454.205,676.188 Q452.828,677.77 452.828,682.135 L452.828,685.328 Q452.828,691.217 455.421,692.96 Q458.014,694.703 461.119,694.703 Q463.492,694.703 465.206,693.663 Q466.92,692.623 468.004,690.543 L468.004,694 L479.517,694 L479.518,674.488 Q479.518,664.85 478.902,661.759 Q478.287,658.668 475.24,656.544 Q472.193,654.42 466.188,654.42 z"/>
    </clipPath>
    <filter id="Shadow_20">
      <feGaussianBlur in="SourceAlpha" stdDeviation="1.5"/>
      <feOffset dx="1" dy="1" result="offsetblur"/>
      <feFlood flood-color="#AAAAAA"/>
      <feComposite in2="offsetblur" operator="in"/>
    </filter>
    <clipPath id="Clip_21">
      <path d="M478.59,649.42 L507.428,649.42 L507.428,699 L478.59,699 z M502.428,654.42 Q497.535,654.742 494.957,660.221 L495.426,655.123 L483.59,655.123 L483.59,694 L495.426,694 L495.426,678.648 Q495.426,672.994 495.777,671.427 Q496.129,669.859 497.652,668.98 Q499.176,668.102 502.428,668.102 L502.428,654.42 z"/>
    </clipPath>
    <filter id="Shadow_22">
      <feGaussianBlur in="SourceAlpha" stdDeviation="1.5"/>
      <feOffset dx="1" dy="1" result="offsetblur"/>
      <feFlood flood-color="#AAAAAA"/>
      <feComposite in2="offsetblur" operator="in"/>
    </filter>
    <clipPath id="Clip_23">
      <path d="M500.215,644.938 L528.32,644.938 L528.32,699 L500.215,699 z M519.629,649.938 L507.764,649.938 L507.764,656.06 L505.215,656.06 L505.215,662.213 L507.764,662.213 L507.764,681.959 Q507.764,687.76 508.086,689.327 Q508.408,690.895 509.727,692.11 Q511.045,693.326 512.773,693.663 Q514.502,694 518.545,694 L523.32,694 L523.32,687.73 Q520.42,687.73 520.024,687.291 Q519.629,686.852 519.629,683.014 L519.629,662.213 L522.822,662.213 L522.822,656.06 L519.629,656.06 L519.629,649.938 z"/>
    </clipPath>
    <filter id="Shadow_24">
      <feGaussianBlur in="SourceAlpha" stdDeviation="1.5"/>
      <feOffset dx="1" dy="1" result="offsetblur"/>
      <feFlood flood-color="#AAAAAA"/>
      <feComposite in2="offsetblur" operator="in"/>
    </filter>
    <clipPath id="Clip_25">
      <path d="M519.078,649.42 L556.236,649.42 L556.236,699.703 L519.078,699.703 z M537.73,661.305 Q538.727,661.305 539.049,662.184 Q539.371,663.062 539.371,666.08 L539.371,668.922 L535.914,668.922 L535.914,666.08 Q535.914,662.799 536.207,662.052 Q536.5,661.305 537.73,661.305 z M537.174,654.42 Q533.102,654.42 529.967,655.987 Q526.832,657.555 525.455,660.499 Q524.078,663.443 524.078,668.541 L524.078,679.879 Q524.078,684.215 524.693,686.485 Q525.309,688.756 526.905,690.646 Q528.502,692.535 531.373,693.619 Q534.244,694.703 537.994,694.703 Q541.861,694.703 544.425,693.604 Q546.988,692.506 548.658,690.309 Q550.328,688.111 550.782,686.178 Q551.236,684.244 551.236,680.641 L551.236,677.769 L540.016,677.769 L540.016,682.896 Q540.016,685.797 539.562,686.808 Q539.107,687.818 537.76,687.818 Q536.676,687.818 536.295,687.057 Q535.914,686.295 535.914,683.658 L535.914,675.25 L551.236,675.25 L551.236,670.094 Q551.236,664.439 549.933,661.319 Q548.629,658.199 545.392,656.31 Q542.154,654.42 537.174,654.42 z"/>
    </clipPath>
    <filter id="Shadow_26">
      <feGaussianBlur in="SourceAlpha" stdDeviation="1.5"/>
      <feOffset dx="1" dy="1" result="offsetblur"/>
      <feFlood flood-color="#AAAAAA"/>
      <feComposite in2="offsetblur" operator="in"/>
    </filter>
    <clipPath id="Clip_27">
      <path d="M549.752,641.568 L587.027,641.568 L587.027,699.703 L549.752,699.703 z M568.375,661.305 Q569.459,661.305 569.825,662.037 Q570.191,662.77 570.191,664.908 L570.191,682.896 Q570.191,686.148 569.811,686.983 Q569.43,687.818 568.287,687.818 Q567.291,687.818 566.939,687.071 Q566.588,686.324 566.588,683.951 L566.588,664.908 Q566.588,662.623 566.954,661.964 Q567.32,661.305 568.375,661.305 z M582.027,646.568 L570.191,646.568 L570.191,657.584 Q568.697,656.002 566.866,655.211 Q565.035,654.42 562.838,654.42 Q559.996,654.42 557.945,655.841 Q555.895,657.262 555.323,659.137 Q554.752,661.012 554.752,665.494 L554.752,683.688 Q554.752,687.994 555.323,689.898 Q555.895,691.803 557.916,693.253 Q559.938,694.703 562.691,694.703 Q564.742,694.703 566.617,693.824 Q568.492,692.945 570.191,691.188 L570.191,694 L582.027,694 L582.027,646.568 z"/>
    </clipPath>
    <filter id="Shadow_28">
      <feGaussianBlur in="SourceAlpha" stdDeviation="1.5"/>
      <feOffset dx="1" dy="1" result="offsetblur"/>
      <feFlood flood-color="#AAAAAA"/>
      <feComposite in2="offsetblur" operator="in"/>
    </filter>
    <clipPath id="Clip_29">
      <path d="M581.275,641.568 L604.283,641.568 L604.283,699 L581.275,699 z M599.283,646.568 L586.275,646.568 L588.209,682.281 L597.349,682.281 L599.283,646.568 z M598.316,684.508 L587.242,684.508 L587.242,694 L598.316,694 L598.316,684.508 z"/>
    </clipPath>
    <filter id="Shadow_30">
      <feGaussianBlur in="SourceAlpha" stdDeviation="1.5"/>
      <feOffset dx="1" dy="1" result="offsetblur"/>
      <feFlood flood-color="#AAAAAA"/>
      <feComposite in2="offsetblur" operator="in"/>
    </filter>
  </defs>
  <g id="Layer_1" transform="translate(-187.094, -642.572)">
    <path d="M262.018,661.832 L260.465,653.834 L260.465,646.568 L269.43,646.568 L269.43,653.834 L268.082,661.832 z" fill="#E20613"/>
    <g>
      <g>
        <path d="M202.428,646.568 L202.428,684.508 L209.928,684.508 L209.928,694 L190.094,694 L190.094,646.568 L202.428,646.568 z" clip-path="url(#Clip_1)" filter="url(#Shadow_2)" fill="rgba(0,0,0,1)"/>
        <path d="M202.428,646.568 L202.428,684.508 L209.928,684.508 L209.928,694 L190.094,694 L190.094,646.568 z" fill="#E20613"/>
      </g>
      <g>
        <path d="M225.309,654.42 Q230.289,654.42 233.526,656.31 Q236.764,658.199 238.067,661.319 Q239.371,664.439 239.371,670.094 L239.371,675.25 L224.049,675.25 L224.049,683.658 Q224.049,686.295 224.43,687.057 Q224.811,687.818 225.895,687.818 Q227.242,687.818 227.696,686.808 Q228.15,685.797 228.15,682.896 L228.15,677.769 L239.371,677.769 L239.371,680.641 Q239.371,684.244 238.917,686.178 Q238.463,688.111 236.793,690.309 Q235.123,692.506 232.56,693.604 Q229.996,694.703 226.129,694.703 Q222.379,694.703 219.508,693.619 Q216.637,692.535 215.04,690.646 Q213.443,688.756 212.828,686.485 Q212.213,684.215 212.213,679.879 L212.213,668.541 Q212.213,663.443 213.59,660.499 Q214.967,657.555 218.102,655.987 Q221.236,654.42 225.309,654.42 z M225.865,661.305 Q224.635,661.305 224.342,662.052 Q224.049,662.799 224.049,666.08 L224.049,668.922 L227.506,668.922 L227.506,666.08 Q227.506,663.062 227.184,662.184 Q226.861,661.305 225.865,661.305 z" clip-path="url(#Clip_3)" filter="url(#Shadow_4)" fill="rgba(0,0,0,1)"/>
        <path d="M239.371,675.25 L224.049,675.25 L224.049,683.658 Q224.049,686.295 224.43,687.057 Q224.811,687.818 225.895,687.818 Q227.242,687.818 227.696,686.808 Q228.15,685.797 228.15,682.896 L228.15,677.77 L239.371,677.77 L239.371,680.641 Q239.371,684.244 238.917,686.178 Q238.463,688.111 236.793,690.309 Q235.123,692.506 232.56,693.604 Q229.996,694.703 226.129,694.703 Q222.379,694.703 219.508,693.619 Q216.637,692.535 215.04,690.646 Q213.443,688.756 212.828,686.485 Q212.213,684.215 212.213,679.879 L212.213,668.541 Q212.213,663.443 213.59,660.499 Q214.967,657.555 218.102,655.987 Q221.236,654.42 225.309,654.42 Q230.289,654.42 233.526,656.31 Q236.764,658.199 238.067,661.319 Q239.371,664.439 239.371,670.094 z M227.506,668.922 L227.506,666.08 Q227.506,663.062 227.184,662.184 Q226.861,661.305 225.865,661.305 Q224.635,661.305 224.342,662.052 Q224.049,662.799 224.049,666.08 L224.049,668.922 z" fill="#E20613"/>
      </g>
      <g>
        <path d="M255.719,649.938 L255.719,656.06 L258.912,656.06 L258.912,662.213 L255.719,662.213 L255.719,683.014 Q255.719,686.852 256.114,687.291 Q256.51,687.73 259.41,687.73 L259.41,694 L254.635,694 Q250.592,694 248.863,693.663 Q247.135,693.326 245.816,692.11 Q244.498,690.895 244.176,689.327 Q243.854,687.76 243.854,681.959 L243.854,662.213 L241.305,662.213 L241.305,656.06 L243.854,656.06 L243.854,649.938 L255.719,649.938 z" clip-path="url(#Clip_5)" filter="url(#Shadow_6)" fill="rgba(0,0,0,1)"/>
        <path d="M255.719,649.938 L255.719,656.061 L258.912,656.061 L258.912,662.213 L255.719,662.213 L255.719,683.014 Q255.719,686.852 256.114,687.291 Q256.51,687.73 259.41,687.73 L259.41,694 L254.635,694 Q250.592,694 248.863,693.663 Q247.135,693.326 245.816,692.11 Q244.498,690.895 244.176,689.327 Q243.854,687.76 243.854,681.959 L243.854,662.213 L241.305,662.213 L241.305,656.061 L243.854,656.061 L243.854,649.938 z" fill="#E20613"/>
      </g>
      <g>
        <path d="M283.99,654.42 Q287.857,654.42 290.567,655.401 Q293.277,656.383 294.728,657.994 Q296.178,659.605 296.485,660.982 Q296.793,662.359 296.793,665.289 L296.793,667.545 L286.305,667.545 L286.305,665.435 Q286.305,662.74 285.997,662.022 Q285.689,661.305 284.459,661.305 Q283.463,661.305 282.965,661.964 Q282.467,662.623 282.467,663.941 Q282.467,665.729 282.716,666.563 Q282.965,667.398 284.21,668.395 Q285.455,669.391 289.322,671.295 Q294.479,673.814 296.09,676.041 Q297.701,678.268 297.701,682.516 Q297.701,687.262 296.471,689.679 Q295.24,692.096 292.354,693.399 Q289.469,694.703 285.396,694.703 Q280.885,694.703 277.677,693.297 Q274.469,691.891 273.268,689.488 Q272.066,687.086 272.066,682.223 L272.066,680.348 L282.555,680.348 L282.555,682.808 Q282.555,685.943 282.95,686.881 Q283.346,687.818 284.518,687.818 Q285.777,687.818 286.275,687.188 Q286.773,686.559 286.773,684.537 Q286.773,681.754 286.129,681.051 Q285.455,680.348 279.244,676.891 Q274.029,673.961 272.887,671.573 Q271.744,669.186 271.744,665.904 Q271.744,661.246 272.975,659.034 Q274.205,656.822 277.149,655.621 Q280.094,654.42 283.99,654.42 z" clip-path="url(#Clip_7)" filter="url(#Shadow_8)" fill="rgba(0,0,0,1)"/>
        <path d="M296.793,667.545 L286.305,667.545 L286.305,665.436 Q286.305,662.74 285.997,662.022 Q285.689,661.305 284.459,661.305 Q283.463,661.305 282.965,661.964 Q282.467,662.623 282.467,663.941 Q282.467,665.729 282.716,666.563 Q282.965,667.398 284.21,668.395 Q285.455,669.391 289.322,671.295 Q294.479,673.814 296.09,676.041 Q297.701,678.268 297.701,682.516 Q297.701,687.262 296.471,689.679 Q295.24,692.096 292.354,693.399 Q289.469,694.703 285.396,694.703 Q280.885,694.703 277.677,693.297 Q274.469,691.891 273.268,689.488 Q272.066,687.086 272.066,682.223 L272.066,680.348 L282.555,680.348 L282.555,682.809 Q282.555,685.943 282.95,686.881 Q283.346,687.818 284.518,687.818 Q285.777,687.818 286.275,687.188 Q286.773,686.559 286.773,684.537 Q286.773,681.754 286.129,681.051 Q285.455,680.348 279.244,676.891 Q274.029,673.961 272.887,671.573 Q271.744,669.186 271.744,665.904 Q271.744,661.246 272.975,659.034 Q274.205,656.822 277.149,655.621 Q280.094,654.42 283.99,654.42 Q287.857,654.42 290.567,655.401 Q293.277,656.383 294.728,657.994 Q296.178,659.605 296.485,660.982 Q296.793,662.359 296.793,665.289 z" fill="#E20613"/>
      </g>
      <g>
        <path d="M325.357,645.572 Q330.777,645.572 334.352,647.799 Q337.926,650.025 339.01,653.087 Q340.094,656.148 340.094,661.979 L340.094,664.029 L327.76,664.029 L327.76,659.723 Q327.76,655.65 327.408,654.625 Q327.057,653.6 325.738,653.6 Q324.596,653.6 324.186,654.479 Q323.775,655.357 323.775,658.99 L323.775,681.754 Q323.775,684.947 324.186,685.958 Q324.596,686.969 325.826,686.969 Q327.174,686.969 327.657,685.826 Q328.141,684.684 328.141,681.373 L328.141,675.748 L325.65,675.748 L325.65,668.541 L340.094,668.541 L340.094,694 L332.33,694 L331.188,690.602 Q329.928,692.799 328.009,693.897 Q326.09,694.996 323.482,694.996 Q320.377,694.996 317.667,693.487 Q314.957,691.979 313.551,689.752 Q312.145,687.525 311.793,685.079 Q311.441,682.633 311.441,677.74 L311.441,663.648 Q311.441,656.852 312.174,653.775 Q312.906,650.699 316.378,648.136 Q319.85,645.572 325.357,645.572 z" clip-path="url(#Clip_9)" filter="url(#Shadow_10)" fill="rgba(0,0,0,1)"/>
        <path d="M340.094,664.029 L327.76,664.029 L327.76,659.723 Q327.76,655.65 327.408,654.625 Q327.057,653.6 325.738,653.6 Q324.596,653.6 324.186,654.479 Q323.775,655.357 323.775,658.99 L323.775,681.754 Q323.775,684.947 324.186,685.958 Q324.596,686.969 325.826,686.969 Q327.174,686.969 327.657,685.826 Q328.141,684.684 328.141,681.373 L328.141,675.748 L325.65,675.748 L325.65,668.541 L340.094,668.541 L340.094,694 L332.33,694 L331.188,690.602 Q329.928,692.799 328.009,693.897 Q326.09,694.996 323.482,694.996 Q320.377,694.996 317.667,693.487 Q314.957,691.979 313.551,689.752 Q312.145,687.525 311.793,685.079 Q311.441,682.633 311.441,677.74 L311.441,663.648 Q311.441,656.852 312.174,653.775 Q312.906,650.699 316.378,648.136 Q319.85,645.572 325.357,645.572 Q330.777,645.572 334.352,647.799 Q337.926,650.025 339.01,653.087 Q340.094,656.148 340.094,661.979 z" fill="#E20613"/>
      </g>
      <g>
        <path d="M357.262,654.42 Q362.242,654.42 365.479,656.31 Q368.717,658.199 370.021,661.319 Q371.324,664.439 371.324,670.094 L371.324,675.25 L356.002,675.25 L356.002,683.658 Q356.002,686.295 356.383,687.057 Q356.764,687.818 357.848,687.818 Q359.195,687.818 359.649,686.808 Q360.104,685.797 360.104,682.896 L360.103,677.769 L371.324,677.769 L371.324,680.641 Q371.324,684.244 370.87,686.178 Q370.416,688.111 368.746,690.309 Q367.076,692.506 364.513,693.604 Q361.949,694.703 358.082,694.703 Q354.332,694.703 351.461,693.619 Q348.59,692.535 346.993,690.646 Q345.396,688.756 344.781,686.485 Q344.166,684.215 344.166,679.879 L344.166,668.541 Q344.166,663.443 345.543,660.499 Q346.92,657.555 350.055,655.987 Q353.189,654.42 357.262,654.42 z M357.818,661.305 Q356.588,661.305 356.295,662.052 Q356.002,662.799 356.002,666.08 L356.002,668.922 L359.459,668.922 L359.459,666.08 Q359.459,663.062 359.137,662.184 Q358.814,661.305 357.818,661.305 z" clip-path="url(#Clip_11)" filter="url(#Shadow_12)" fill="rgba(0,0,0,1)"/>
        <path d="M371.324,675.25 L356.002,675.25 L356.002,683.658 Q356.002,686.295 356.383,687.057 Q356.764,687.818 357.848,687.818 Q359.195,687.818 359.649,686.808 Q360.104,685.797 360.104,682.896 L360.104,677.77 L371.324,677.77 L371.324,680.641 Q371.324,684.244 370.87,686.178 Q370.416,688.111 368.746,690.309 Q367.076,692.506 364.513,693.604 Q361.949,694.703 358.082,694.703 Q354.332,694.703 351.461,693.619 Q348.59,692.535 346.993,690.646 Q345.396,688.756 344.781,686.485 Q344.166,684.215 344.166,679.879 L344.166,668.541 Q344.166,663.443 345.543,660.499 Q346.92,657.555 350.055,655.987 Q353.189,654.42 357.262,654.42 Q362.242,654.42 365.479,656.31 Q368.717,658.199 370.021,661.319 Q371.324,664.439 371.324,670.094 z M359.459,668.922 L359.459,666.08 Q359.459,663.062 359.137,662.184 Q358.814,661.305 357.818,661.305 Q356.588,661.305 356.295,662.052 Q356.002,662.799 356.002,666.08 L356.002,668.922 z" fill="#E20613"/>
      </g>
      <g>
        <path d="M387.672,649.938 L387.672,656.06 L390.865,656.06 L390.865,662.213 L387.672,662.213 L387.672,683.014 Q387.672,686.852 388.067,687.291 Q388.463,687.73 391.363,687.73 L391.363,694 L386.588,694 Q382.545,694 380.816,693.663 Q379.088,693.326 377.77,692.11 Q376.451,690.895 376.129,689.327 Q375.807,687.76 375.807,681.959 L375.807,662.213 L373.258,662.213 L373.258,656.06 L375.807,656.06 L375.807,649.938 L387.672,649.938 z" clip-path="url(#Clip_13)" filter="url(#Shadow_14)" fill="rgba(0,0,0,1)"/>
        <path d="M387.672,649.938 L387.672,656.061 L390.865,656.061 L390.865,662.213 L387.672,662.213 L387.672,683.014 Q387.672,686.852 388.067,687.291 Q388.463,687.73 391.363,687.73 L391.363,694 L386.588,694 Q382.545,694 380.816,693.663 Q379.088,693.326 377.77,692.11 Q376.451,690.895 376.129,689.327 Q375.807,687.76 375.807,681.959 L375.807,662.213 L373.258,662.213 L373.258,656.061 L375.807,656.061 L375.807,649.938 z" fill="#E20613"/>
      </g>
      <g>
        <path d="M416.764,645.572 Q421.568,645.572 424.952,647.125 Q428.336,648.678 429.435,651.036 Q430.533,653.395 430.533,659.049 L430.533,660.924 L419.078,660.924 L419.078,657.408 Q419.078,654.947 418.639,654.273 Q418.199,653.6 417.174,653.6 Q416.061,653.6 415.489,654.508 Q414.918,655.416 414.918,657.262 Q414.918,659.635 415.562,660.836 Q416.178,662.037 419.049,663.736 Q427.281,668.629 429.42,671.764 Q431.559,674.898 431.559,681.871 Q431.559,686.939 430.372,689.342 Q429.186,691.744 425.787,693.37 Q422.389,694.996 417.877,694.996 Q412.926,694.996 409.425,693.121 Q405.924,691.246 404.84,688.346 Q403.756,685.445 403.756,680.113 L403.756,677.008 L415.211,677.008 L415.211,682.779 Q415.211,685.445 415.694,686.207 Q416.178,686.969 417.408,686.969 Q418.639,686.969 419.239,686.002 Q419.84,685.035 419.84,683.131 Q419.84,678.941 418.697,677.652 Q417.525,676.363 412.926,673.346 Q408.326,670.299 406.832,668.922 Q405.338,667.545 404.356,665.113 Q403.375,662.682 403.375,658.902 Q403.375,653.453 404.767,650.934 Q406.158,648.414 409.264,646.993 Q412.369,645.572 416.764,645.572 z" clip-path="url(#Clip_15)" filter="url(#Shadow_16)" fill="rgba(0,0,0,1)"/>
        <path d="M430.533,660.924 L419.078,660.924 L419.078,657.408 Q419.078,654.947 418.639,654.273 Q418.199,653.6 417.174,653.6 Q416.061,653.6 415.489,654.508 Q414.918,655.416 414.918,657.262 Q414.918,659.635 415.562,660.836 Q416.178,662.037 419.049,663.736 Q427.281,668.629 429.42,671.764 Q431.559,674.898 431.559,681.871 Q431.559,686.939 430.372,689.342 Q429.186,691.744 425.787,693.37 Q422.389,694.996 417.877,694.996 Q412.926,694.996 409.425,693.121 Q405.924,691.246 404.84,688.346 Q403.756,685.445 403.756,680.113 L403.756,677.008 L415.211,677.008 L415.211,682.779 Q415.211,685.445 415.694,686.207 Q416.178,686.969 417.408,686.969 Q418.639,686.969 419.239,686.002 Q419.84,685.035 419.84,683.131 Q419.84,678.941 418.697,677.652 Q417.525,676.363 412.926,673.346 Q408.326,670.299 406.832,668.922 Q405.338,667.545 404.356,665.113 Q403.375,662.682 403.375,658.902 Q403.375,653.453 404.767,650.934 Q406.158,648.414 409.264,646.993 Q412.369,645.572 416.764,645.572 Q421.568,645.572 424.952,647.125 Q428.336,648.678 429.435,651.036 Q430.533,653.395 430.533,659.049 z" fill="#E20613"/>
      </g>
      <g>
        <path d="M447.555,649.938 L447.555,656.06 L450.748,656.06 L450.748,662.213 L447.555,662.213 L447.555,683.014 Q447.555,686.852 447.95,687.291 Q448.346,687.73 451.246,687.73 L451.246,694 L446.471,694 Q442.428,694 440.699,693.663 Q438.971,693.326 437.652,692.11 Q436.334,690.895 436.012,689.327 Q435.689,687.76 435.689,681.959 L435.689,662.213 L433.141,662.213 L433.141,656.06 L435.689,656.06 L435.689,649.938 L447.555,649.938 z" clip-path="url(#Clip_17)" filter="url(#Shadow_18)" fill="rgba(0,0,0,1)"/>
        <path d="M447.555,649.938 L447.555,656.061 L450.748,656.061 L450.748,662.213 L447.555,662.213 L447.555,683.014 Q447.555,686.852 447.95,687.291 Q448.346,687.73 451.246,687.73 L451.246,694 L446.471,694 Q442.428,694 440.699,693.663 Q438.971,693.326 437.652,692.11 Q436.334,690.895 436.012,689.327 Q435.689,687.76 435.689,681.959 L435.689,662.213 L433.141,662.213 L433.141,656.061 L435.689,656.061 L435.689,649.938 z" fill="#E20613"/>
      </g>
      <g>
        <path d="M466.188,654.42 Q472.193,654.42 475.24,656.544 Q478.287,658.668 478.902,661.759 Q479.518,664.85 479.518,674.488 L479.517,694 L468.004,694 L468.004,690.543 Q466.92,692.623 465.206,693.663 Q463.492,694.703 461.119,694.703 Q458.014,694.703 455.421,692.96 Q452.828,691.217 452.828,685.328 L452.828,682.135 Q452.828,677.77 454.205,676.188 Q455.582,674.605 461.031,672.496 Q466.861,670.211 467.271,669.42 Q467.682,668.629 467.682,666.197 Q467.682,663.15 467.228,662.228 Q466.773,661.305 465.719,661.305 Q464.518,661.305 464.225,662.081 Q463.932,662.857 463.932,666.109 L463.932,670.182 L452.828,670.182 L452.828,667.574 Q452.828,663.062 453.868,660.616 Q454.908,658.17 458.043,656.295 Q461.178,654.42 466.188,654.42 z M467.682,675.514 Q464.84,677.594 464.386,679 Q463.932,680.406 463.932,683.043 Q463.932,686.061 464.327,686.939 Q464.723,687.818 465.895,687.818 Q467.008,687.818 467.345,687.13 Q467.682,686.441 467.682,683.512 L467.682,675.514 z" clip-path="url(#Clip_19)" filter="url(#Shadow_20)" fill="rgba(0,0,0,1)"/>
        <path d="M463.932,670.182 L452.828,670.182 L452.828,667.574 Q452.828,663.062 453.868,660.616 Q454.908,658.17 458.043,656.295 Q461.178,654.42 466.188,654.42 Q472.193,654.42 475.24,656.544 Q478.287,658.668 478.902,661.759 Q479.518,664.85 479.518,674.488 L479.518,694 L468.004,694 L468.004,690.543 Q466.92,692.623 465.206,693.663 Q463.492,694.703 461.119,694.703 Q458.014,694.703 455.421,692.96 Q452.828,691.217 452.828,685.328 L452.828,682.135 Q452.828,677.77 454.205,676.188 Q455.582,674.605 461.031,672.496 Q466.861,670.211 467.271,669.42 Q467.682,668.629 467.682,666.197 Q467.682,663.15 467.228,662.228 Q466.773,661.305 465.719,661.305 Q464.518,661.305 464.225,662.081 Q463.932,662.857 463.932,666.109 z M467.682,675.514 Q464.84,677.594 464.386,679 Q463.932,680.406 463.932,683.043 Q463.932,686.061 464.327,686.939 Q464.723,687.818 465.895,687.818 Q467.008,687.818 467.345,687.13 Q467.682,686.441 467.682,683.512 z" fill="#E20613"/>
      </g>
      <g>
        <path d="M502.428,654.42 L502.428,668.102 Q499.176,668.102 497.652,668.98 Q496.129,669.859 495.777,671.427 Q495.426,672.994 495.426,678.648 L495.426,694 L483.59,694 L483.59,655.123 L495.426,655.123 L494.957,660.221 Q497.535,654.742 502.428,654.42 z" clip-path="url(#Clip_21)" filter="url(#Shadow_22)" fill="rgba(0,0,0,1)"/>
        <path d="M495.426,655.123 L494.957,660.221 Q497.535,654.742 502.428,654.42 L502.428,668.102 Q499.176,668.102 497.652,668.98 Q496.129,669.859 495.777,671.427 Q495.426,672.994 495.426,678.648 L495.426,694 L483.59,694 L483.59,655.123 z" fill="#E20613"/>
      </g>
      <g>
        <path d="M519.629,649.938 L519.629,656.06 L522.822,656.06 L522.822,662.213 L519.629,662.213 L519.629,683.014 Q519.629,686.852 520.024,687.291 Q520.42,687.73 523.32,687.73 L523.32,694 L518.545,694 Q514.502,694 512.773,693.663 Q511.045,693.326 509.727,692.11 Q508.408,690.895 508.086,689.327 Q507.764,687.76 507.764,681.959 L507.764,662.213 L505.215,662.213 L505.215,656.06 L507.764,656.06 L507.764,649.938 L519.629,649.938 z" clip-path="url(#Clip_23)" filter="url(#Shadow_24)" fill="rgba(0,0,0,1)"/>
        <path d="M519.629,649.938 L519.629,656.061 L522.822,656.061 L522.822,662.213 L519.629,662.213 L519.629,683.014 Q519.629,686.852 520.024,687.291 Q520.42,687.73 523.32,687.73 L523.32,694 L518.545,694 Q514.502,694 512.773,693.663 Q511.045,693.326 509.727,692.11 Q508.408,690.895 508.086,689.327 Q507.764,687.76 507.764,681.959 L507.764,662.213 L505.215,662.213 L505.215,656.061 L507.764,656.061 L507.764,649.938 z" fill="#E20613"/>
      </g>
      <g>
        <path d="M537.174,654.42 Q542.154,654.42 545.392,656.31 Q548.629,658.199 549.933,661.319 Q551.236,664.439 551.236,670.094 L551.236,675.25 L535.914,675.25 L535.914,683.658 Q535.914,686.295 536.295,687.057 Q536.676,687.818 537.76,687.818 Q539.107,687.818 539.562,686.808 Q540.016,685.797 540.016,682.896 L540.016,677.769 L551.236,677.769 L551.236,680.641 Q551.236,684.244 550.782,686.178 Q550.328,688.111 548.658,690.309 Q546.988,692.506 544.425,693.604 Q541.861,694.703 537.994,694.703 Q534.244,694.703 531.373,693.619 Q528.502,692.535 526.905,690.646 Q525.309,688.756 524.693,686.485 Q524.078,684.215 524.078,679.879 L524.078,668.541 Q524.078,663.443 525.455,660.499 Q526.832,657.555 529.967,655.987 Q533.102,654.42 537.174,654.42 z M537.73,661.305 Q536.5,661.305 536.207,662.052 Q535.914,662.799 535.914,666.08 L535.914,668.922 L539.371,668.922 L539.371,666.08 Q539.371,663.062 539.049,662.184 Q538.727,661.305 537.73,661.305 z" clip-path="url(#Clip_25)" filter="url(#Shadow_26)" fill="rgba(0,0,0,1)"/>
        <path d="M551.236,675.25 L535.914,675.25 L535.914,683.658 Q535.914,686.295 536.295,687.057 Q536.676,687.818 537.76,687.818 Q539.107,687.818 539.562,686.808 Q540.016,685.797 540.016,682.896 L540.016,677.77 L551.236,677.77 L551.236,680.641 Q551.236,684.244 550.782,686.178 Q550.328,688.111 548.658,690.309 Q546.988,692.506 544.425,693.604 Q541.861,694.703 537.994,694.703 Q534.244,694.703 531.373,693.619 Q528.502,692.535 526.905,690.646 Q525.309,688.756 524.693,686.485 Q524.078,684.215 524.078,679.879 L524.078,668.541 Q524.078,663.443 525.455,660.499 Q526.832,657.555 529.967,655.987 Q533.102,654.42 537.174,654.42 Q542.154,654.42 545.392,656.31 Q548.629,658.199 549.933,661.319 Q551.236,664.439 551.236,670.094 z M539.371,668.922 L539.371,666.08 Q539.371,663.062 539.049,662.184 Q538.727,661.305 537.73,661.305 Q536.5,661.305 536.207,662.052 Q535.914,662.799 535.914,666.08 L535.914,668.922 z" fill="#E20613"/>
      </g>
      <g>
        <path d="M582.027,646.568 L582.027,694 L570.191,694 L570.191,691.188 Q568.492,692.945 566.617,693.824 Q564.742,694.703 562.691,694.703 Q559.938,694.703 557.916,693.253 Q555.895,691.803 555.323,689.898 Q554.752,687.994 554.752,683.688 L554.752,665.494 Q554.752,661.012 555.323,659.137 Q555.895,657.262 557.945,655.841 Q559.996,654.42 562.838,654.42 Q565.035,654.42 566.866,655.211 Q568.697,656.002 570.191,657.584 L570.191,646.568 L582.027,646.568 z M568.375,661.305 Q567.32,661.305 566.954,661.964 Q566.588,662.623 566.588,664.908 L566.588,683.951 Q566.588,686.324 566.939,687.071 Q567.291,687.818 568.287,687.818 Q569.43,687.818 569.811,686.983 Q570.191,686.148 570.191,682.896 L570.191,664.908 Q570.191,662.77 569.825,662.037 Q569.459,661.305 568.375,661.305 z" clip-path="url(#Clip_27)" filter="url(#Shadow_28)" fill="rgba(0,0,0,1)"/>
        <path d="M582.027,646.568 L582.027,694 L570.191,694 L570.191,691.188 Q568.492,692.945 566.617,693.824 Q564.742,694.703 562.691,694.703 Q559.938,694.703 557.916,693.253 Q555.895,691.803 555.323,689.898 Q554.752,687.994 554.752,683.688 L554.752,665.494 Q554.752,661.012 555.323,659.137 Q555.895,657.262 557.945,655.841 Q559.996,654.42 562.838,654.42 Q565.035,654.42 566.866,655.211 Q568.697,656.002 570.191,657.584 L570.191,646.568 z M570.191,664.908 Q570.191,662.77 569.825,662.037 Q569.459,661.305 568.375,661.305 Q567.32,661.305 566.954,661.964 Q566.588,662.623 566.588,664.908 L566.588,683.951 Q566.588,686.324 566.939,687.071 Q567.291,687.818 568.287,687.818 Q569.43,687.818 569.811,686.983 Q570.191,686.148 570.191,682.896 z" fill="#E20613"/>
      </g>
      <g>
        <path d="M598.316,684.508 L598.316,694 L587.242,694 L587.242,684.508 L598.316,684.508 z M599.283,646.568 L597.349,682.281 L588.209,682.281 L586.275,646.568 L599.283,646.568 z" clip-path="url(#Clip_29)" filter="url(#Shadow_30)" fill="rgba(0,0,0,1)"/>
        <path d="M599.283,646.568 L597.35,682.281 L588.209,682.281 L586.275,646.568 z M598.316,684.508 L598.316,694 L587.242,694 L587.242,684.508 z" fill="#E20613"/>
      </g>
    </g>
  </g>
</svg>
